<?xml version="1.0" standalone="no"?>
<!DOCTYPE svg PUBLIC "-//W3C//DTD SVG 20010904//EN"
 "http://www.w3.org/TR/2001/REC-SVG-20010904/DTD/svg10.dtd">
<svg version="1.0" xmlns="http://www.w3.org/2000/svg"
 width="1500.000000pt" height="455.000000pt" viewBox="0 0 1500.000000 455.000000"
 preserveAspectRatio="xMidYMid meet">

<g transform="translate(0.000000,455.000000) scale(0.100000,-0.100000)"
fill="#000000" stroke="none">
<path d="M2480 4529 c17 -14 21 -22 12 -26 -7 -3 7 -20 38 -45 27 -22 51 -44
51 -49 1 -5 2 -13 3 -18 0 -5 4 -13 9 -17 4 -4 7 -16 7 -26 0 -11 7 -18 20
-18 23 0 25 9 8 45 -9 21 -9 28 1 35 11 6 9 13 -8 31 -12 13 -17 25 -11 29 5
3 -6 21 -25 40 -28 27 -44 34 -82 36 l-48 3 25 -20z"/>
<path d="M3926 4531 c18 -11 38 -28 45 -39 8 -10 37 -31 64 -44 l50 -26 2 30
c1 17 -4 43 -12 58 -8 15 -11 30 -8 34 4 3 -34 6 -83 6 l-89 0 31 -19z"/>
<path d="M4905 4513 c16 -43 50 -178 60 -240 4 -24 11 -43 16 -43 4 0 6 -6 3
-14 -5 -12 30 -255 56 -396 l9 -45 -1 55 c-1 30 -5 60 -10 67 -5 7 -5 14 2 18
12 7 14 85 1 85 -4 0 -12 28 -15 62 -4 35 -12 68 -17 75 -6 6 -10 31 -11 55 0
24 -3 48 -6 53 -9 14 -8 65 1 65 4 0 0 11 -9 25 -9 13 -20 41 -24 61 l-8 36
48 -7 49 -7 -9 31 c-5 19 -5 33 1 37 17 10 0 22 -24 17 -12 -3 -19 -2 -15 2
13 14 -39 45 -76 45 l-36 0 15 -37z"/>
<path d="M5254 4541 c18 -7 66 -3 66 5 0 2 -19 4 -42 3 -31 0 -37 -3 -24 -8z"/>
<path d="M5326 4493 c-3 -32 -2 -85 3 -118 8 -56 8 -53 9 47 0 60 4 112 7 118
3 5 2 10 -3 10 -6 0 -13 -26 -16 -57z"/>
<path d="M12487 4532 c-15 -10 -24 -22 -20 -25 3 -4 0 -15 -9 -24 -22 -27 -41
-98 -34 -126 5 -20 0 -28 -22 -43 -52 -34 -141 -118 -135 -127 3 -6 1 -7 -4
-4 -6 4 -13 0 -17 -8 -3 -8 -12 -15 -20 -15 -27 0 -50 -130 -25 -146 6 -3 9
-15 6 -25 -10 -38 11 -28 44 20 19 27 48 55 64 63 17 7 29 20 28 28 -3 18 100
71 137 70 20 -1 15 -6 -30 -30 -30 -16 -52 -29 -48 -30 4 0 1 -20 -7 -45 -13
-45 -13 -46 8 -39 76 24 106 45 132 88 15 25 31 46 36 46 13 0 11 -9 -12 -46
l-20 -34 33 15 c18 7 65 29 104 49 40 19 88 38 108 41 26 5 36 12 36 26 0 21
-20 27 -20 7 0 -7 -5 -5 -11 6 -8 12 -8 25 -1 40 6 13 6 29 1 38 -6 11 -4 20
6 28 8 7 15 16 15 20 0 5 17 44 37 87 54 115 55 112 -26 111 -52 -1 -74 -5
-92 -20 l-24 -19 32 15 c43 21 46 20 27 -9 -9 -14 -12 -25 -7 -25 5 0 20 11
33 25 13 14 28 25 34 25 5 0 -7 -17 -27 -38 -21 -21 -35 -41 -31 -44 14 -15
-207 -108 -254 -108 -10 0 18 92 39 132 5 10 26 27 47 37 20 11 32 20 27 21
-16 0 -109 -52 -122 -69 -7 -9 -13 -11 -13 -5 0 6 7 17 15 24 8 7 15 21 15 30
0 10 8 21 18 23 14 4 14 5 -3 6 -11 0 -32 -7 -48 -17z m317 -57 c-10 -8 -23
-14 -29 -14 -5 0 -1 6 9 14 11 8 24 15 30 15 5 0 1 -7 -10 -15z m-319 -64 c0
-22 -2 -35 -6 -29 -3 5 -9 -2 -13 -17 -4 -15 -9 -26 -11 -23 -4 3 24 108 28
108 2 0 2 -18 2 -39z m293 -6 c-6 -14 -14 -25 -18 -25 -15 0 -160 -148 -160
-163 0 -13 -6 -15 -32 -10 -23 5 -29 3 -23 -6 6 -10 3 -11 -15 -1 -15 8 -57
11 -125 8 -77 -2 -97 -1 -81 7 12 6 34 20 50 30 29 19 29 19 22 -2 -6 -19 -4
-21 23 -18 17 2 39 8 49 14 27 15 105 41 121 41 23 0 123 82 110 90 -8 5 -6
11 7 19 11 6 15 11 9 11 -16 1 38 28 57 29 15 1 16 -3 6 -24z m-338 -109 c0
-2 -7 -7 -16 -10 -8 -3 -12 -2 -9 4 6 10 25 14 25 6z"/>
<path d="M12561 4261 c-8 -5 -9 -11 -3 -15 5 -3 15 1 22 9 14 16 3 20 -19 6z"/>
<path d="M12644 4521 c-57 -29 -87 -51 -79 -59 3 -3 14 3 24 12 11 10 46 31
78 46 32 16 51 28 43 28 -8 0 -38 -12 -66 -27z"/>
<path d="M13220 4521 c0 -27 4 -31 26 -31 22 0 25 4 22 28 -2 19 -9 28 -25 30
-20 3 -23 -1 -23 -27z"/>
<path d="M13291 4524 c-12 -26 -11 -27 21 -19 18 3 48 9 67 12 18 3 47 11 65
19 29 12 26 13 -55 14 -83 0 -86 -1 -98 -26z"/>
<path d="M13524 4535 c-4 -8 -4 -27 -2 -40 6 -29 0 -30 -66 -10 -27 8 -63 15
-80 14 -26 0 -22 -3 24 -17 31 -9 64 -23 75 -29 17 -11 18 -14 5 -23 -31 -21
-65 -23 -110 -5 -25 10 -68 20 -96 22 l-50 5 -13 -106 c-7 -57 -10 -115 -6
-127 6 -19 5 -21 -16 -15 -13 3 -59 9 -102 13 -56 4 -80 10 -84 21 -5 12 5
102 23 202 3 18 0 15 -9 -8 -7 -18 -16 -30 -20 -26 -4 4 -7 2 -7 -4 0 -7 -6
-12 -13 -12 -8 0 -22 -16 -33 -35 -10 -19 -22 -35 -27 -35 -4 0 -6 -4 -2 -9 3
-6 -1 -13 -8 -18 -8 -4 -25 -28 -37 -53 -28 -57 -49 -80 -70 -80 -9 0 -61 -18
-115 -40 -53 -22 -142 -56 -195 -76 -101 -36 -130 -57 -133 -91 -1 -20 -2 -20
-42 -2 -42 20 -75 24 -75 11 0 -4 19 -13 43 -19 24 -7 54 -20 67 -31 l23 -19
-46 -12 c-42 -12 -48 -12 -91 14 -50 29 -66 27 -66 -12 0 -14 -7 -53 -16 -87
-9 -33 -16 -76 -16 -93 0 -28 -3 -31 -17 -23 -10 5 -41 11 -71 15 -29 3 -57 8
-62 11 -14 9 -9 56 22 179 16 66 30 122 29 125 0 3 -10 -14 -22 -37 -12 -24
-37 -60 -54 -80 -70 -83 -94 -118 -105 -157 -12 -39 -54 -94 -64 -83 -3 3 -69
-16 -147 -43 -78 -26 -166 -53 -194 -61 -42 -10 -56 -19 -65 -40 -10 -23 -16
-26 -35 -18 -33 12 -29 -6 7 -31 17 -12 30 -25 30 -30 0 -5 -19 -12 -43 -15
l-42 -7 -30 -81 c-17 -45 -29 -87 -29 -94 2 -14 -53 -7 -73 10 -19 14 -17 22
37 193 54 169 61 204 28 137 -11 -24 -24 -43 -29 -43 -5 0 -9 -7 -9 -16 0 -20
-41 -96 -57 -107 -7 -4 -13 -14 -13 -22 0 -7 -13 -25 -30 -38 -16 -14 -30 -30
-30 -35 0 -5 -8 -20 -19 -33 -10 -13 -19 -28 -19 -34 -1 -18 -173 -69 -350
-104 -30 -5 -36 -13 -66 -86 -18 -44 -51 -116 -73 -160 -22 -44 -42 -85 -44
-92 -3 -8 -9 -9 -18 -4 -10 7 -1 39 47 157 33 82 67 169 75 194 9 25 18 53 22
63 4 10 3 17 -4 17 -6 0 -10 -3 -9 -7 4 -11 -41 -81 -71 -112 -14 -15 -42 -47
-61 -71 -19 -24 -43 -51 -53 -59 -10 -9 -30 -35 -44 -58 -14 -24 -29 -43 -34
-43 -5 0 -12 -12 -15 -27 -7 -25 -8 -26 -15 -6 -9 26 -5 79 10 117 24 61 216
371 260 419 18 20 32 39 30 42 -9 9 -77 -65 -118 -129 -24 -36 -45 -66 -48
-66 -5 0 -3 4 60 100 27 41 55 82 62 90 12 13 10 15 -18 15 -22 0 -34 6 -42
21 -6 12 -17 30 -25 39 -8 9 -15 24 -17 33 -1 9 -9 22 -17 28 -10 7 -16 27
-16 52 0 24 -7 47 -16 56 -18 19 -59 22 -48 4 5 -8 2 -9 -10 -5 -10 4 -22 7
-27 7 -4 0 -6 7 -3 15 8 19 -16 19 -62 0 -34 -14 -39 -35 -8 -35 8 0 17 -8 21
-17 11 -31 34 -52 51 -46 11 5 14 2 9 -10 -3 -9 -2 -17 3 -17 6 0 10 5 10 10
0 6 7 10 16 10 10 0 14 -6 11 -14 -4 -10 -1 -13 9 -9 19 7 18 -6 -6 -44 -11
-18 -15 -33 -10 -33 5 0 13 8 19 17 5 10 13 15 17 10 4 -4 -1 -15 -10 -26 -16
-18 -16 -20 6 -35 12 -9 30 -16 40 -16 20 0 26 -9 38 -52 9 -29 8 -30 -9 -14
-20 18 -41 22 -23 4 21 -21 12 -61 -33 -143 -37 -68 -48 -81 -74 -85 -16 -3
-40 -14 -53 -25 -20 -18 -26 -19 -48 -8 -14 7 -25 16 -25 20 -1 21 -19 33 -50
33 -19 0 -36 4 -40 10 -3 5 -13 6 -23 3 -9 -3 6 15 33 40 28 26 57 46 65 46
10 0 8 -3 -5 -8 -17 -7 -16 -9 13 -15 17 -4 32 -12 32 -17 0 -5 8 -9 18 -9 11
0 27 -9 37 -20 36 -40 55 -21 55 55 0 26 6 47 15 55 24 20 18 25 -28 26 -23 1
-34 0 -24 -3 19 -5 24 -23 6 -23 -8 0 -8 -4 1 -15 10 -12 4 -14 -45 -10 -32 2
-59 6 -61 7 -2 2 15 25 37 51 22 26 36 47 31 47 -5 0 -23 -18 -42 -41 -34 -43
-178 -155 -219 -170 -13 -5 -37 -21 -53 -34 -16 -14 -36 -25 -44 -25 -8 0 -14
-4 -14 -10 0 -5 -7 -10 -16 -10 -13 0 -15 8 -12 35 2 19 0 35 -5 35 -4 0 -6 4
-3 9 3 5 -6 12 -20 15 -22 6 -24 9 -13 24 7 9 -16 -11 -52 -46 -36 -34 -68
-59 -72 -56 -4 4 -7 -2 -7 -13 0 -11 -9 -28 -20 -38 -10 -9 -19 -20 -18 -24 3
-15 -15 -60 -22 -56 -4 3 -11 -2 -14 -11 -4 -10 -2 -13 7 -8 6 4 3 -4 -9 -17
-11 -13 -27 -34 -35 -45 -8 -12 -33 -47 -57 -78 l-43 -57 26 -44 c14 -25 30
-45 35 -45 6 0 10 -10 10 -22 0 -13 4 -18 8 -13 4 7 16 2 30 -12 l24 -21 -21
-12 c-19 -9 -25 -7 -49 21 -15 18 -34 43 -43 56 -14 21 -17 22 -29 8 -7 -8
-20 -15 -29 -15 -25 -1 -46 -21 -71 -70 -12 -25 -32 -58 -43 -74 -18 -25 -51
-146 -42 -154 6 -7 41 22 141 114 53 49 105 92 116 96 28 11 68 -32 68 -74 -1
-67 -33 -114 -147 -213 -24 -21 -43 -41 -43 -46 0 -10 105 0 135 12 15 7 12 8
-12 5 -18 -2 -33 -2 -33 1 0 9 63 93 71 93 4 0 6 8 5 18 0 10 5 16 14 14 8 -2
12 -1 8 3 -4 4 9 36 29 71 22 41 34 73 31 88 -4 17 -1 23 9 19 31 -12 11 -162
-26 -193 -3 -3 -14 -21 -25 -40 -10 -19 -26 -41 -34 -47 -24 -20 -6 -27 35
-15 43 13 112 48 296 149 143 79 205 101 245 87 23 -8 27 -15 27 -49 0 -38 -3
-41 -55 -71 -30 -18 -100 -60 -155 -94 -55 -34 -128 -80 -162 -101 -87 -53
-82 -89 6 -58 27 10 32 16 28 36 -5 26 23 53 54 53 9 0 41 16 69 35 29 20 53
34 54 33 1 -2 6 -16 12 -33 9 -27 13 -30 53 -29 35 0 49 6 65 27 12 15 27 27
33 27 6 0 21 13 33 29 11 17 31 33 43 37 12 4 25 12 29 18 11 16 10 56 -2 56
-5 0 -10 4 -10 8 0 14 537 283 552 277 9 -4 20 -17 26 -30 10 -22 17 -24 56
-21 38 3 53 10 86 43 22 23 40 46 40 52 0 6 7 11 15 11 8 0 15 4 15 8 0 5 11
14 25 20 18 8 25 20 25 39 1 26 10 32 118 82 193 90 343 157 405 180 l58 21
25 -55 c14 -30 29 -57 33 -59 4 -3 140 44 302 104 191 71 308 110 334 110 l40
0 64 -122 c35 -68 89 -172 121 -233 32 -60 104 -201 161 -313 114 -223 113
-215 31 -228 -23 -3 -44 -10 -47 -14 -6 -9 57 -20 92 -17 12 1 21 -2 20 -8 -1
-6 -32 -9 -75 -7 -53 3 -88 -2 -130 -16 -31 -11 -76 -23 -100 -27 -30 -5 -42
-11 -38 -20 6 -16 -25 -45 -48 -45 -9 0 -26 5 -36 10 -14 7 -21 6 -27 -3 -11
-19 -120 -67 -150 -67 -13 0 -31 -7 -39 -15 -10 -10 -36 -15 -77 -15 -62 0
-155 -25 -199 -53 -26 -17 -62 -24 -157 -32 -35 -2 -66 -7 -69 -10 -15 -15 18
-17 97 -7 48 7 101 12 117 12 l29 -1 -25 -13 c-15 -9 -103 -21 -215 -30 -259
-22 -286 -26 -277 -40 4 -6 12 -26 18 -43 l12 -33 -39 0 c-40 0 -41 1 -42 58
0 26 -20 28 -157 13 -47 -6 -149 -15 -227 -22 -134 -11 -159 -18 -132 -35 14
-8 -8 -24 -35 -24 -13 0 -16 5 -12 16 6 15 0 16 -46 9 -29 -4 -99 -9 -155 -10
-67 -3 -112 -9 -132 -19 -42 -22 -66 -20 -85 9 -15 22 -21 24 -59 19 -23 -4
-46 -7 -52 -8 -14 -1 -34 -29 -29 -38 3 -5 -9 -8 -26 -8 -18 0 -33 6 -36 15
-8 19 -38 19 -53 1 -9 -11 -9 -20 -2 -35 18 -33 12 -60 -16 -78 -23 -15 -65
-19 -317 -26 -254 -7 -332 -11 -350 -16 -3 0 0 -16 5 -33 9 -31 -3 -106 -21
-133 -4 -5 -15 -32 -25 -60 -22 -60 -31 -68 -61 -49 -12 8 -34 13 -49 10 -25
-5 -26 -4 -13 17 8 12 41 68 72 125 53 92 60 101 72 85 11 -14 13 -15 14 -3 0
33 -16 42 -61 35 -24 -4 -51 -13 -59 -19 -8 -7 -31 -19 -50 -26 -19 -7 -45
-24 -57 -38 -33 -38 -84 -27 -168 37 -75 58 -72 66 27 57 35 -3 92 -8 128 -11
l65 -4 -60 14 c-33 9 -85 18 -115 21 -30 4 -67 15 -82 25 -19 14 -27 16 -30 7
-3 -8 -11 -4 -24 11 -10 12 -31 29 -46 37 -46 24 -36 -12 17 -62 l44 -43 -57
-12 c-31 -6 -82 -17 -112 -25 -30 -7 -82 -14 -115 -15 -57 -1 -134 -25 -231
-70 -22 -10 -53 -19 -69 -19 -21 0 -26 -3 -18 -11 8 -8 42 -1 123 25 143 47
240 68 240 52 0 -24 -60 -220 -74 -241 -31 -47 -48 -42 -181 47 -69 46 -125
89 -125 97 0 10 -7 11 -27 6 -68 -19 -124 -27 -198 -29 -52 -2 -98 -10 -130
-23 -95 -38 -156 -47 -236 -35 -66 10 -77 15 -104 46 -18 21 -39 36 -52 36
-12 0 -25 4 -28 10 -13 22 -74 10 -108 -20 -19 -17 -42 -30 -51 -30 -10 0 -14
-4 -11 -10 8 -14 -11 -12 -66 4 l-47 14 -28 -35 c-31 -37 -37 -37 -138 -18
-43 9 -46 12 -46 51 0 30 4 37 31 46 l30 10 -20 20 c-27 24 -26 30 4 77 31 46
83 71 147 70 26 0 53 3 60 7 7 4 94 11 193 14 184 7 233 17 277 57 17 15 17
17 -1 27 -45 26 -129 86 -164 120 -21 19 -46 41 -56 48 -10 7 -38 30 -62 50
-24 21 -69 54 -99 75 -30 20 -61 43 -68 50 -21 20 -41 16 -35 -7 6 -21 -6 -25
-54 -21 -19 1 -23 -3 -23 -28 0 -16 -4 -33 -10 -36 -6 -3 -10 4 -10 18 0 14
-7 43 -15 66 -9 25 -10 41 -4 41 16 0 39 26 39 44 0 24 22 66 32 60 4 -3 5
-11 1 -17 -4 -7 0 -6 10 2 9 7 14 18 10 25 -4 6 30 -21 77 -61 66 -57 88 -70
104 -64 12 4 37 5 56 1 19 -3 56 -1 82 4 l48 10 21 65 c12 36 52 123 89 192
61 116 65 127 52 147 -14 21 -13 22 11 22 13 0 30 -7 37 -15 11 -13 15 -14 29
-1 9 8 33 21 54 30 22 9 41 25 44 36 6 23 41 27 49 5 8 -19 29 -19 59 1 29 19
32 31 8 38 -15 4 -15 5 2 4 37 -1 44 2 50 22 3 11 12 20 18 20 7 0 18 9 25 21
8 12 10 19 5 16 -5 -3 -35 14 -68 38 -33 24 -75 54 -92 67 -18 13 -33 26 -33
31 0 7 22 11 45 8 6 0 25 23 41 52 25 42 35 52 55 50 24 -3 24 -3 2 10 -20 11
-21 14 -7 46 9 22 11 38 5 44 -6 6 -3 23 10 46 19 35 25 85 13 115 -4 10 -18
16 -39 16 -19 0 -39 8 -49 19 -27 30 -117 54 -176 49 -66 -7 -120 -44 -158
-109 -28 -49 -29 -54 -14 -65 15 -11 15 -16 4 -34 -7 -12 -11 -24 -9 -26 9
-10 34 9 60 47 77 111 220 132 262 39 10 -21 15 -46 11 -56 -3 -9 -1 -24 6
-32 11 -14 10 -15 -7 -7 -11 4 -32 10 -47 13 -23 3 -29 0 -38 -24 -9 -22 -8
-30 7 -43 15 -15 16 -15 5 0 -6 9 -9 19 -5 22 11 12 23 8 23 -7 0 -8 11 -17
25 -20 22 -6 23 -9 15 -32 -7 -16 -7 -32 0 -44 14 -26 13 -53 -2 -47 -7 2 -12
12 -12 21 2 19 -12 22 -19 4 -4 -10 -6 -10 -6 0 -1 7 -5 11 -10 7 -5 -3 -13 4
-16 16 -6 18 -8 19 -24 5 -11 -10 -21 -12 -31 -6 -23 15 -34 12 -20 -5 15 -18
7 -19 -22 -4 -17 9 -18 13 -7 21 11 8 10 9 -3 5 -19 -7 -43 17 -33 33 9 15
-11 12 -24 -4 -9 -11 -9 -19 1 -35 7 -12 16 -21 20 -21 5 0 8 -7 8 -15 0 -8 5
-15 10 -15 6 0 10 -5 10 -11 0 -5 -5 -7 -12 -3 -7 4 -8 3 -4 -4 11 -18 45 -14
78 9 44 32 43 18 -3 -29 -62 -66 -116 -54 -159 33 l-19 40 -1 -36 c0 -37 36
-89 70 -101 11 -3 10 -9 -8 -29 -13 -13 -18 -25 -12 -27 21 -7 9 -22 -28 -32
-53 -14 -75 -41 -75 -90 0 -34 -3 -40 -17 -35 -16 5 -36 -18 -32 -37 1 -4 -9
-2 -23 4 -20 9 -22 14 -14 30 6 10 15 16 22 12 7 -4 4 1 -5 12 -9 11 -44 35
-77 54 -58 33 -79 59 -66 79 3 6 12 8 19 5 8 -3 30 13 51 40 21 24 47 47 57
49 12 4 18 12 16 24 -2 12 2 17 12 15 8 -2 29 -1 47 3 29 5 33 10 33 36 0 16
7 46 15 66 18 44 19 40 -3 46 -12 2 -22 18 -26 38 -7 32 -8 33 -17 11 -11 -29
-35 -38 -56 -21 -15 13 -15 12 -5 -7 9 -17 9 -24 -1 -32 -28 -23 -198 35 -216
74 -27 60 -225 54 -300 -9 l-31 -26 42 -30 c24 -16 55 -40 70 -53 14 -13 36
-31 47 -40 28 -24 26 -38 -5 -38 -14 0 -23 -4 -19 -9 6 -11 -5 -15 -115 -37
-47 -9 -93 -21 -104 -26 -14 -8 -17 -7 -11 3 6 9 2 10 -16 6 -13 -4 -31 -7
-39 -7 -11 0 -10 -3 4 -11 15 -9 16 -13 5 -21 -14 -9 -11 -9 56 9 l20 5 -20
-16 c-20 -15 -20 -15 5 -16 14 0 56 16 94 35 50 25 64 29 51 15 -24 -26 -5
-25 29 1 16 12 35 19 46 16 11 -3 22 -1 25 3 3 4 15 6 27 2 14 -3 19 -2 14 6
-4 7 -14 12 -22 12 -8 0 -12 5 -8 11 4 8 9 8 17 0 14 -14 72 -14 97 -1 29 16
32 -5 5 -34 -29 -31 -42 -33 -50 -6 -8 25 -25 26 -25 2 0 -14 -8 -17 -45 -16
-25 1 -48 -3 -52 -9 -4 -6 0 -8 10 -4 9 3 19 2 22 -4 4 -5 11 -7 16 -4 5 4 9
2 9 -4 0 -5 -10 -13 -22 -17 -13 -4 -29 -16 -37 -27 -7 -10 -36 -29 -63 -42
-34 -16 -44 -24 -33 -29 20 -7 86 26 115 57 15 16 19 17 15 5 -4 -10 -46 -42
-93 -73 -48 -30 -80 -55 -71 -55 9 0 29 7 45 15 32 16 43 13 25 -8 -9 -12 -6
-13 16 -10 24 4 23 2 -12 -17 -22 -13 -43 -27 -46 -33 -4 -5 -11 -7 -17 -3 -5
3 -12 0 -15 -7 -6 -15 30 -21 38 -6 4 5 18 9 31 9 14 0 35 10 46 23 15 17 18
18 14 5 -15 -47 44 7 67 62 9 19 16 29 16 23 1 -7 5 -13 11 -13 5 0 6 7 3 17
-4 11 -3 14 6 9 8 -5 14 -1 18 13 3 11 9 18 14 15 5 -3 9 4 9 15 0 12 -2 21
-5 21 -14 0 -85 -54 -85 -65 0 -6 -12 -25 -27 -41 -26 -28 -26 -28 -10 -2 12
20 13 28 4 31 -7 3 6 21 33 45 25 22 48 38 52 35 4 -2 5 4 1 13 -4 11 -3 15 5
10 6 -3 13 -2 17 4 3 5 -1 10 -9 10 -9 0 -16 6 -16 13 0 15 20 46 20 32 0 -5
18 -29 40 -53 22 -23 47 -56 56 -73 14 -28 14 -32 -2 -50 -15 -17 -16 -21 -2
-36 23 -27 33 -47 20 -39 -15 9 -15 7 -1 -32 6 -18 15 -29 20 -26 12 7 11 -4
-4 -49 -8 -20 -17 -34 -21 -30 -4 4 -11 1 -16 -7 -13 -20 -12 -39 1 -20 8 12
9 10 7 -10 -2 -14 -9 -24 -16 -23 -6 2 -12 -3 -12 -11 0 -17 -27 -29 -32 -14
-3 7 -9 5 -19 -4 -16 -16 -58 -30 -101 -33 -48 -4 -55 -12 -68 -77 -22 -103
-125 -308 -156 -308 -7 0 -14 -4 -16 -8 -1 -4 -33 -24 -69 -45 -36 -20 -89
-52 -118 -72 -29 -19 -65 -35 -80 -35 -67 0 -179 66 -181 106 0 7 -18 39 -40
72 -22 33 -40 69 -40 80 0 11 -7 22 -14 25 -19 8 -46 59 -62 120 -13 50 -12
59 13 116 8 18 13 49 11 67 -4 32 -1 37 44 64 27 17 57 30 67 30 22 0 83 -24
77 -31 -3 -2 9 -12 25 -21 16 -9 29 -13 29 -8 0 6 9 1 20 -10 22 -22 56 -26
63 -7 4 8 12 4 25 -12 24 -30 41 -11 19 23 -17 25 -114 66 -158 66 -36 0 -38
16 -3 32 20 9 30 9 45 0 10 -7 25 -12 32 -12 7 0 37 -12 66 -26 55 -28 73 -26
53 6 -15 24 -4 26 45 8 27 -10 38 -10 53 0 11 7 26 12 33 12 8 0 14 6 14 13 0
8 -19 12 -58 12 -45 0 -55 3 -47 13 6 6 19 12 29 12 10 0 21 4 24 10 3 6 1 10
-5 10 -6 0 -9 4 -6 9 5 7 -37 8 -69 1 -28 -6 -22 4 26 48 69 63 91 78 83 58
-7 -17 20 -15 56 4 11 6 28 9 38 6 9 -3 24 -1 32 4 11 7 -4 10 -48 10 -48 0
-61 -3 -56 -12 6 -10 4 -10 -7 -1 -22 21 -56 15 -92 -17 -19 -16 -39 -30 -43
-30 -5 1 5 12 21 25 17 14 25 25 19 25 -5 0 -14 -4 -20 -9 -10 -10 -94 -24
-94 -16 0 3 15 14 33 25 38 24 29 25 -55 6 -35 -8 -88 -17 -118 -21 l-55 -7
35 24 c19 14 37 21 40 17 6 -8 110 46 110 57 0 3 -5 2 -12 -2 -7 -4 -8 -3 -4
4 4 7 16 12 26 12 10 0 20 5 22 11 2 6 17 13 33 15 16 1 31 8 33 13 2 6 9 11
15 11 17 1 61 39 53 47 -3 3 -14 0 -23 -8 -10 -8 -47 -29 -83 -46 -36 -18 -98
-48 -139 -69 -41 -20 -70 -31 -66 -24 5 9 1 10 -16 5 -21 -6 -19 -2 10 22 35
29 108 71 224 129 67 34 87 51 45 39 -22 -7 -22 -6 -3 7 11 8 40 20 65 27 25
7 56 17 69 22 13 5 57 7 97 3 65 -6 74 -5 69 9 -8 19 -38 29 -92 31 -29 1 -43
-3 -43 -11 0 -7 -1 -13 -3 -13 -22 0 -127 -25 -142 -33 -11 -7 -36 -17 -55
-23 l-35 -11 25 -11 c24 -10 22 -12 -43 -41 -37 -18 -73 -29 -78 -25 -8 5
-107 -53 -129 -76 -3 -3 -16 -7 -30 -8 -22 -4 -23 -2 -10 14 13 16 13 17 0 12
-9 -3 -24 0 -33 7 -15 11 -16 14 -2 25 9 7 19 10 22 6 4 -4 1 -11 -7 -16 -8
-6 -11 -10 -6 -10 5 0 19 11 32 25 21 23 20 35 -2 18 -5 -5 10 9 33 30 24 21
43 43 43 48 0 15 -80 -32 -91 -53 -5 -10 -19 -18 -31 -18 -20 0 -19 3 13 37
l34 36 -34 -23 c-23 -16 -35 -19 -40 -11 -5 8 -13 5 -26 -9 -11 -13 -21 -16
-25 -10 -4 6 -34 -16 -70 -52 -62 -60 -84 -67 -58 -17 24 44 112 161 167 221
59 63 53 71 -24 34 -99 -46 -171 -130 -182 -213 -3 -26 -12 -57 -19 -68 -8
-11 -14 -29 -14 -41 0 -32 -10 -54 -25 -54 -7 0 -59 22 -115 49 -57 27 -109
47 -117 44 -8 -3 -13 -2 -12 3 8 44 -42 105 -98 122 -44 13 -203 35 -209 29
-2 -2 10 -24 27 -48 70 -100 138 -208 168 -264 32 -62 78 -121 90 -118 12 3
-4 -90 -22 -123 -16 -30 -118 -131 -162 -160 -18 -12 -28 -13 -44 -4 -12 6
-21 14 -21 19 0 5 -19 28 -41 52 -43 46 -119 156 -119 173 0 11 -53 95 -97
154 -18 24 -31 48 -28 52 3 5 -3 13 -13 19 -12 7 -19 23 -20 53 -3 48 -70 170
-107 194 -29 19 -60 77 -76 144 -7 30 -16 57 -20 60 -3 3 -12 22 -18 43 -7 20
-16 37 -21 37 -14 0 -6 -54 10 -67 9 -7 15 -33 17 -72 1 -34 9 -74 18 -90 14
-28 14 -30 -8 -34 -21 -4 -20 -4 3 -6 17 -1 32 -13 48 -39 l23 -37 -23 26
c-17 20 -40 30 -95 41 -40 8 -73 11 -73 6 0 -4 6 -8 14 -8 8 0 16 -10 18 -22
2 -13 10 -23 18 -23 8 0 20 -7 27 -15 10 -12 8 -18 -8 -32 -12 -10 -27 -18
-33 -18 -13 0 -102 -66 -153 -113 -49 -46 -424 -347 -431 -347 -4 0 -38 -30
-77 -66 -38 -36 -87 -74 -107 -85 -20 -10 -43 -27 -50 -37 -7 -10 -56 -54
-108 -97 -52 -44 -106 -91 -120 -105 -14 -14 -37 -32 -50 -41 -14 -9 -59 -47
-100 -84 -41 -37 -106 -96 -145 -130 -38 -35 -95 -84 -125 -110 -68 -59 -161
-140 -209 -182 -20 -18 -40 -33 -45 -33 -4 0 -17 -11 -28 -25 -11 -14 -24 -22
-30 -19 -7 4 -8 2 -4 -4 4 -7 4 -12 -1 -12 -4 0 -25 -15 -45 -34 -21 -19 -47
-37 -58 -41 -11 -3 -20 -13 -20 -21 0 -8 -10 -14 -23 -14 -23 0 -137 -102
-137 -122 0 -5 -8 -8 -17 -6 -21 3 -41 -10 -120 -79 -32 -28 -61 -51 -65 -50
-4 1 -15 -8 -23 -20 -9 -13 -23 -20 -35 -18 -11 2 -20 0 -20 -6 0 -5 5 -9 11
-9 8 0 7 -5 -1 -15 -7 -9 -20 -13 -29 -10 -10 4 -25 -5 -41 -25 -20 -24 -35
-32 -63 -34 -20 -1 -37 2 -37 6 0 5 -9 8 -20 8 -11 0 -20 -4 -20 -10 0 -5 7
-10 15 -10 17 0 30 -24 21 -39 -4 -6 -18 -6 -36 -1 -36 10 -70 2 -70 -17 0 -7
-11 -25 -25 -39 -14 -14 -25 -29 -25 -34 0 -6 -18 -10 -40 -10 -23 0 -40 -5
-40 -11 0 -8 -14 -10 -41 -6 -42 5 -89 -8 -89 -26 0 -5 -9 -7 -20 -4 -10 3
-19 2 -18 -2 1 -3 -4 -17 -11 -32 -13 -26 -51 -56 -51 -40 0 20 13 41 25 41 8
0 12 8 10 18 -2 12 20 44 61 88 69 74 114 142 114 171 0 10 8 23 18 30 11 6
36 37 58 70 21 32 65 86 97 121 35 38 56 69 53 78 -3 9 1 14 13 14 10 0 21 7
25 15 3 8 12 15 21 15 8 0 15 8 15 18 0 10 9 24 20 32 11 8 20 18 20 23 0 9
98 107 227 227 59 56 116 102 158 130 25 17 137 113 169 146 12 12 31 24 43
28 11 4 56 40 98 80 42 41 87 77 101 80 13 4 24 10 24 15 0 5 13 14 29 20 23
10 28 18 27 45 l-1 33 -24 -18 c-13 -11 -30 -19 -37 -19 -7 0 -24 -10 -37 -22
-14 -13 -82 -66 -151 -118 -70 -52 -156 -117 -190 -145 -93 -74 -269 -218
-287 -235 -10 -8 -32 -29 -50 -45 -19 -17 -61 -53 -94 -79 -62 -51 -170 -145
-234 -206 -20 -19 -68 -62 -106 -95 -39 -33 -72 -62 -75 -65 -3 -4 -52 -48
-110 -100 -58 -52 -127 -115 -155 -141 -27 -25 -88 -82 -135 -125 -46 -44
-139 -132 -205 -196 l-121 -117 1 -108 c0 -102 2 -111 34 -172 54 -106 37
-100 334 -101 l259 0 133 100 c142 107 225 160 424 275 281 161 442 246 499
264 53 17 393 177 462 218 65 38 191 93 250 109 137 37 356 20 471 -37 20 -10
39 -16 42 -13 3 3 3 -2 1 -13 -6 -20 -42 -50 -65 -54 -8 -1 -41 11 -74 26 -56
26 -69 28 -190 29 -79 1 -151 -4 -183 -13 -61 -15 -210 -76 -232 -95 -8 -7
-79 -53 -158 -102 -79 -49 -160 -100 -181 -114 -22 -14 -70 -44 -107 -68 -38
-24 -109 -70 -159 -103 -49 -32 -112 -71 -140 -86 -64 -34 -39 -42 48 -15 102
33 155 43 261 49 80 5 120 13 196 41 69 25 111 34 155 34 69 0 213 32 267 59
42 21 50 15 50 -36 0 -37 40 -86 118 -145 47 -35 109 -105 121 -138 6 -16 3
-18 -17 -14 -14 2 -24 0 -24 -7 0 -6 -11 -16 -25 -21 -14 -5 -25 -16 -25 -25
0 -8 -4 -15 -9 -15 -17 0 -23 -42 -10 -66 l12 -24 1400 0 c1360 0 1400 1 1416
19 9 10 27 38 41 61 14 23 33 51 43 61 9 11 17 24 17 29 0 6 3 10 8 10 4 0 28
34 52 75 24 41 48 75 52 75 4 0 20 19 34 43 15 23 35 49 44 57 9 8 29 33 45
55 17 22 38 47 47 56 10 9 18 20 18 24 0 5 26 40 58 79 73 90 82 110 71 166
-29 158 -30 162 -18 176 15 18 -15 106 -72 210 -21 40 -35 75 -32 78 4 3 23 6
44 6 21 0 84 9 141 19 57 11 123 23 147 26 l43 7 -7 -60 c-7 -58 -6 -61 28
-99 19 -21 42 -53 52 -72 9 -19 28 -46 41 -60 13 -14 25 -29 25 -33 3 -20 5
-24 14 -38 5 -8 10 -21 11 -27 1 -7 15 -34 32 -61 16 -26 32 -65 36 -86 l7
-38 -33 6 c-78 16 -159 18 -191 5 -43 -17 -76 -41 -77 -56 0 -17 -33 -77 -47
-86 -7 -4 -13 -13 -13 -19 0 -6 -17 -33 -37 -61 -21 -28 -47 -68 -58 -89 -11
-20 -30 -50 -43 -65 -12 -15 -36 -46 -52 -68 -16 -22 -34 -45 -39 -51 -4 -5
-14 -21 -21 -35 -7 -13 -28 -42 -47 -65 -18 -23 -33 -45 -33 -51 0 -5 -14 -22
-31 -39 -17 -16 -37 -41 -45 -56 l-15 -28 189 0 c136 0 192 3 201 12 11 10 13
10 7 0 -5 -9 5 -12 40 -12 41 0 59 8 147 66 137 92 279 175 286 168 10 -10
-64 -68 -150 -116 -46 -25 -106 -63 -134 -82 l-50 -36 175 2 174 3 13 25 c7
14 31 70 53 125 57 141 70 168 76 162 7 -6 -24 -96 -38 -111 -4 -6 -8 -20 -8
-33 0 -13 -4 -23 -9 -23 -5 0 -11 -10 -14 -22 -6 -23 -6 -23 9 -3 8 11 22 29
30 39 9 10 27 41 41 68 15 30 29 46 36 41 6 -3 1 8 -12 26 -25 35 -23 52 3 25
9 -9 20 -13 24 -9 4 3 -1 11 -11 16 -9 6 -25 18 -35 29 -9 10 -43 30 -74 44
-31 14 -64 36 -72 48 -24 33 -19 45 5 14 11 -14 24 -26 28 -26 7 0 44 58 39
62 -7 7 59 81 110 123 90 74 201 185 248 248 52 70 64 128 41 188 -8 21 -12
39 -7 39 4 0 -10 36 -32 80 -40 79 -50 90 -64 69 -8 -14 26 -90 37 -83 12 7
11 2 -7 -34 -8 -18 -22 -32 -30 -32 -8 0 -14 -7 -14 -15 0 -25 -30 -17 -40 11
-13 33 -13 94 0 94 15 0 12 30 -4 36 -14 5 -32 66 -27 92 4 22 -20 43 -40 37
-16 -5 -19 -1 -19 29 0 22 -5 36 -12 37 -7 0 1 5 17 10 48 15 88 3 109 -32 10
-17 30 -41 44 -53 58 -49 127 -113 146 -134 11 -12 26 -22 33 -22 7 0 13 -9
13 -21 0 -18 -4 -20 -25 -15 -14 4 -25 2 -25 -3 0 -6 -6 -8 -14 -5 -11 4 -17
-5 -22 -31 -6 -32 -1 -44 32 -93 22 -31 49 -67 62 -81 12 -13 22 -32 22 -42 0
-11 4 -19 9 -19 5 0 13 -10 16 -22 4 -13 24 -53 46 -90 21 -36 39 -75 39 -85
0 -13 13 -25 38 -36 74 -33 113 -120 113 -256 0 -75 3 -91 24 -123 31 -47 155
-150 172 -144 7 3 12 2 11 -2 0 -4 11 -33 25 -64 l27 -58 135 0 c74 0 134 3
133 8 -6 22 14 91 32 107 11 10 20 23 20 30 0 6 12 17 27 24 25 12 30 10 50
-14 25 -28 30 -84 13 -129 -7 -20 -6 -26 5 -26 7 0 20 8 27 18 23 32 37 34 34
7 l-3 -25 806 1 806 0 -42 37 c-24 21 -43 43 -43 49 0 6 -6 18 -13 25 -23 24
-65 123 -65 156 0 17 -3 41 -7 51 -3 11 -1 22 5 26 5 3 10 16 10 28 0 27 88
123 152 166 84 56 232 114 390 152 239 58 850 76 1323 39 154 -11 296 -25 315
-30 39 -11 39 -11 -285 17 -271 23 -881 23 -1063 0 -255 -32 -432 -80 -574
-154 -99 -52 -182 -136 -193 -197 -4 -21 -13 -40 -19 -42 -16 -6 -11 -69 10
-131 20 -58 29 -71 94 -139 l52 -54 1834 0 1834 0 0 261 0 260 -43 -5 c-181
-24 -291 -36 -324 -35 -54 2 76 24 240 40 l127 13 0 54 0 54 -97 -6 c-155 -11
-347 -34 -426 -52 -39 -9 -85 -19 -102 -21 -16 -3 -33 -10 -36 -15 -3 -5 -19
-8 -35 -6 -26 3 -24 4 21 20 117 39 467 88 627 88 l48 0 0 370 c0 322 -2 370
-15 370 -8 0 -15 -4 -15 -10 0 -5 -5 -10 -11 -10 -5 0 -7 5 -4 10 5 8 -47 16
-77 11 -4 0 -5 6 -2 14 3 8 23 16 47 18 l42 4 -48 1 c-51 2 -58 22 -8 22 16 0
43 3 60 6 l31 6 0 94 c0 91 -1 94 -22 95 l-23 0 23 11 c22 11 23 15 21 160
l-1 148 -29 0 c-38 0 -37 16 1 24 l30 6 0 110 0 110 -50 0 c-32 0 -52 5 -57
14 -6 10 -30 16 -77 18 -76 3 -97 20 -49 40 23 9 25 12 10 15 -10 3 -31 0 -45
-6 -61 -23 -119 -32 -206 -32 -50 0 -106 -4 -123 -10 -18 -6 -41 -9 -50 -7
-14 3 -11 8 15 23 17 11 32 23 32 29 0 5 8 15 18 22 15 12 13 13 -20 14 -20 0
-38 5 -40 11 -3 8 -35 12 -89 13 -53 1 -92 6 -101 13 -18 15 -95 19 -157 8
-30 -6 -42 -5 -38 2 10 15 -13 22 -101 29 -42 3 -81 10 -87 15 -14 14 -103 11
-209 -7 -89 -15 -98 -15 -121 0 -14 9 -25 21 -25 26 0 7 -121 225 -282 505
-22 39 -48 84 -58 100 -137 240 -142 248 -129 271 19 37 3 47 -65 41 -54 -5
-59 -4 -42 8 10 8 46 24 80 35 74 25 106 43 60 34 -29 -6 -33 -3 -63 51 -18
31 -31 58 -29 60 15 13 92 45 108 45 11 0 44 18 73 39 33 25 107 61 197 97 80
31 174 69 210 84 36 16 112 47 170 70 58 22 119 47 135 55 17 7 104 43 195 80
91 37 192 79 225 92 33 14 98 40 145 58 47 18 201 80 343 138 141 58 257 105
257 104 0 -1 9 -27 20 -57 l19 -55 0 123 1 124 -177 -4 c-130 -2 -177 -6 -181
-15 -2 -7 -10 -13 -19 -13 -15 0 -133 -68 -144 -83 -4 -5 -23 -9 -42 -10 -20
0 -35 -3 -32 -5 7 -7 -87 -51 -114 -54 -64 -7 -20 21 145 94 97 43 180 80 182
83 3 3 -13 5 -36 5 -24 0 -47 -7 -56 -16 -9 -8 -16 -12 -16 -8 0 5 -5 3 -12
-4 -7 -7 -22 -12 -34 -12 -13 0 -29 -7 -38 -15 -8 -8 -18 -15 -21 -15 -6 0
-87 -38 -167 -78 -5 -2 -8 4 -8 13 0 12 -6 16 -19 12 -14 -3 -17 0 -14 14 5
17 57 47 112 64 21 6 23 5 19 -13 -4 -15 -2 -19 8 -15 8 3 14 13 14 22 0 9 12
24 28 33 15 10 21 18 12 18 -8 0 -22 -4 -30 -10 -9 -6 -17 -5 -23 3 -7 9 -10
9 -14 -1 -8 -19 -118 -72 -151 -72 -19 0 -36 -8 -46 -22 -11 -15 -15 -17 -12
-6 3 12 1 15 -10 11 -22 -8 -16 15 9 31 12 8 48 20 80 27 116 27 58 34 -307
37 -312 2 -357 0 -362 -13z m-201 -149 c4 -9 -5 -19 -24 -26 -35 -15 -39 -12
-28 18 9 24 44 30 52 8z m282 4 c-3 -5 -12 -10 -18 -10 -7 0 -6 4 3 10 19 12
23 12 15 0z m-49 -40 c-1 -16 -5 -30 -9 -30 -9 1 -37 -26 -37 -35 0 -4 -7 -13
-15 -21 -8 -9 -15 -25 -15 -37 -1 -22 -1 -22 -20 2 -11 13 -20 34 -20 47 0 13
-5 24 -11 24 -5 0 -8 -4 -5 -8 2 -4 -4 -9 -15 -9 -10 -1 -19 0 -19 2 0 12 102
65 126 65 21 0 25 3 15 9 -11 7 -10 10 5 14 10 2 19 5 20 6 1 0 1 -12 0 -29z
m804 10 c-8 -5 -19 -10 -25 -10 -5 0 -3 5 5 10 8 5 20 10 25 10 6 0 3 -5 -5
-10z m-458 -42 c-7 -7 -12 -8 -12 -2 0 14 12 26 19 19 2 -3 -1 -11 -7 -17z
m-132 -7 c0 -5 -7 -12 -16 -15 -14 -5 -15 -4 -4 9 14 17 20 19 20 6z m30 -35
c0 -3 -4 -8 -10 -11 -5 -3 -10 -1 -10 4 0 6 5 11 10 11 6 0 10 -2 10 -4z m3
-40 c3 -8 0 -19 -6 -25 -20 -16 -318 -133 -325 -127 -3 3 1 6 9 6 12 0 11 2
-1 11 -12 8 -10 9 9 4 14 -5 21 -3 17 3 -7 12 139 77 153 67 6 -3 19 -1 28 5
15 9 14 10 -7 4 -43 -11 -2 22 55 44 63 25 62 25 68 8z m23 -98 c-34 -19 -73
-26 -46 -8 12 8 12 10 -5 10 -18 1 -19 1 -2 11 9 5 23 7 30 3 6 -4 8 -3 4 1
-4 5 3 14 15 21 19 11 24 10 29 -4 5 -12 -3 -22 -25 -34z m-100 -17 c-4 -5 3
-7 14 -4 11 3 20 0 20 -6 0 -6 -5 -11 -10 -11 -6 0 -55 -21 -108 -46 -110 -52
-207 -98 -302 -142 -142 -66 -224 -90 -235 -72 -7 12 140 82 173 82 12 0 22 4
22 9 0 5 9 9 20 9 11 0 20 4 20 9 0 5 7 12 16 15 10 4 13 2 8 -7 -4 -6 2 -2
14 9 11 12 41 30 67 40 26 11 98 43 159 71 113 53 132 60 122 44z m-607 -81
c8 -24 7 -30 -5 -30 -7 0 -14 6 -14 14 0 8 -3 21 -6 30 -3 9 -2 16 4 16 6 0
15 -13 21 -30z m-9 -70 c0 -5 -5 -10 -11 -10 -5 0 -7 5 -4 10 3 6 8 10 11 10
2 0 4 -4 4 -10z m-125 -30 c-3 -5 -11 -10 -16 -10 -6 0 -7 5 -4 10 3 6 11 10
16 10 6 0 7 -4 4 -10z m15 -20 c0 -5 -5 -10 -11 -10 -5 0 -7 5 -4 10 3 6 8 10
11 10 2 0 4 -4 4 -10z m126 -27 c-2 -9 -8 -19 -14 -21 -8 -2 -10 13 -3 36 1 1
5 2 10 2 5 0 8 -8 7 -17z m114 -48 c-7 -9 -15 -13 -19 -10 -3 3 1 10 9 15 21
14 24 12 10 -5z m-442 -27 c-2 -6 -10 -14 -16 -16 -7 -2 -10 2 -6 12 7 18 28
22 22 4z m-168 -48 c0 -5 -5 -10 -11 -10 -5 0 -7 5 -4 10 3 6 8 10 11 10 2 0
4 -4 4 -10z m100 -50 c0 -4 -11 -10 -25 -12 -15 -3 -22 -1 -18 5 4 7 -1 8 -13
2 -52 -21 -97 -35 -102 -31 -8 9 91 47 110 43 10 -3 18 -1 18 4 0 4 7 6 15 3
8 -4 15 -10 15 -14z m250 6 c0 -2 -7 -7 -16 -10 -8 -3 -12 -2 -9 4 6 10 25 14
25 6z m-140 -15 c0 -11 -68 -56 -100 -66 -14 -4 -34 -13 -45 -19 -11 -7 -41
-21 -67 -31 -26 -10 -53 -24 -59 -31 -6 -8 -19 -14 -28 -14 -9 0 -27 -9 -41
-20 -14 -11 -31 -20 -38 -20 -13 0 -48 -16 -289 -131 -56 -27 -104 -55 -106
-62 -3 -6 -6 -4 -6 7 -1 15 -4 16 -16 6 -16 -13 -50 -6 -40 9 5 8 128 71 139
71 2 0 46 20 97 44 178 83 211 96 227 94 10 -2 16 3 14 10 -1 8 2 11 7 8 5 -4
11 -3 13 1 4 11 104 56 123 56 8 0 15 4 15 9 0 5 12 13 26 18 14 6 49 21 77
33 85 39 97 42 97 28z m-2520 -40 c0 -5 -7 -12 -16 -15 -8 -3 -13 -2 -9 3 3 5
-1 12 -7 14 -7 3 -3 6 10 6 12 1 22 -3 22 -8z m1866 -163 c4 -7 3 -8 -4 -4 -7
4 -12 2 -12 -4 0 -6 -4 -9 -9 -6 -5 3 -14 -1 -21 -8 -9 -12 -41 -24 -77 -29
-5 0 -14 -7 -22 -14 -10 -10 -17 -11 -24 -4 -14 14 -11 16 69 50 78 33 90 36
100 19z m-276 -72 c0 -3 -4 -8 -10 -11 -5 -3 -10 -1 -10 4 0 6 5 11 10 11 6 0
10 -2 10 -4z m94 -61 c-4 -8 -11 -15 -16 -15 -6 0 -5 6 2 15 7 8 14 15 16 15
2 0 1 -7 -2 -15z m86 -75 c-8 -5 -19 -10 -25 -10 -5 0 -3 5 5 10 8 5 20 10 25
10 6 0 3 -5 -5 -10z m-3963 -32 c-3 -7 -5 -2 -5 12 0 14 2 19 5 13 2 -7 2 -19
0 -25z m3483 22 c0 -5 -5 -10 -11 -10 -5 0 -7 5 -4 10 3 6 8 10 11 10 2 0 4
-4 4 -10z m280 -84 c0 -2 -9 -6 -20 -9 -11 -3 -18 -1 -14 4 5 9 34 13 34 5z
m-299 -97 c-85 -44 -161 -79 -168 -79 -7 0 -88 -36 -179 -81 -91 -45 -168 -78
-171 -75 -12 12 7 32 48 53 24 12 85 40 134 63 50 23 156 73 238 111 81 38
156 71 167 72 11 2 22 6 26 9 3 4 18 6 33 6 19 -1 -18 -24 -128 -79z m389 31
c0 -5 -7 -10 -16 -10 -8 0 -12 5 -9 10 3 6 10 10 16 10 5 0 9 -4 9 -10z m-662
-17 c-24 -3 -38 -9 -38 -18 0 -9 -6 -12 -15 -9 -8 4 -15 1 -15 -6 0 -6 -4 -9
-9 -6 -5 4 -20 2 -33 -3 -13 -6 -17 -10 -8 -11 9 0 6 -6 -10 -15 -39 -22 -16
-17 53 11 100 41 137 54 137 45 0 -4 -43 -26 -96 -49 -92 -41 -142 -53 -129
-32 3 6 -1 7 -10 4 -13 -6 -16 -1 -13 22 3 25 10 31 48 43 25 7 56 17 70 21
14 4 43 8 65 7 l40 0 -37 -4z m-1247 -32 c33 -17 72 -29 93 -29 21 0 45 -7 55
-16 17 -16 20 -14 49 18 28 32 42 36 42 14 0 -9 -135 -148 -144 -148 -2 0 -7
23 -10 52 l-7 51 -16 -29 c-18 -35 -19 -104 -1 -115 7 -5 9 -9 3 -9 -5 0 -4
-4 3 -9 10 -6 8 -13 -8 -32 -15 -16 -18 -18 -12 -5 10 20 5 56 -8 56 -17 0
-40 -13 -40 -22 0 -5 -17 -35 -38 -66 -21 -31 -51 -79 -67 -107 -53 -94 -163
-224 -190 -225 -5 0 -3 5 5 10 13 9 13 11 0 19 -8 5 -19 7 -25 4 -5 -3 -4 0 3
8 6 7 12 18 12 25 0 10 189 298 293 449 20 27 33 54 30 58 -3 5 -12 -1 -20
-12 -8 -12 -19 -19 -24 -15 -6 4 -6 11 2 20 17 20 5 28 -21 14 -12 -6 -22 -10
-23 -8 -1 2 -8 13 -15 26 -10 18 -10 27 -1 38 15 19 16 19 80 -15z m-1924 -31
c1 -14 0 -18 -3 -9 -3 9 -15 21 -27 28 -22 11 -22 11 3 8 19 -1 25 -8 27 -27z
m-367 -70 c0 -5 -4 -10 -10 -10 -5 0 -10 5 -10 10 0 6 5 10 10 10 6 0 10 -4
10 -10z m385 -10 c-3 -5 -12 -10 -18 -10 -7 0 -6 4 3 10 19 12 23 12 15 0z
m2602 -171 c21 -15 19 -17 -75 -62 l-97 -47 -55 14 c-30 7 -45 14 -33 15 27 1
148 56 158 71 9 14 45 29 65 26 8 -1 25 -8 37 -17z m-2620 -11 c-3 -8 -6 -5
-6 6 -1 11 2 17 5 13 3 -3 4 -12 1 -19z m2183 12 c20 -13 -54 -45 -149 -65
-85 -18 -101 -18 -101 -5 0 14 48 32 85 33 17 0 24 2 16 5 -24 8 50 40 94 41
22 0 47 -4 55 -9z m-3900 -32 c-1 -7 -12 -26 -25 -43 -18 -22 -25 -25 -25 -13
0 9 10 28 23 42 25 30 27 30 27 14z m110 8 c0 -2 -7 -9 -15 -16 -13 -11 -14
-10 -9 4 5 14 24 23 24 12z m4335 -6 c-3 -5 -18 -10 -33 -10 -22 0 -24 -2 -12
-11 13 -9 12 -10 -3 -5 -10 3 -26 -3 -38 -15 -11 -11 -24 -17 -30 -13 -16 9 9
31 56 48 48 18 68 20 60 6z m-4405 -7 c0 -5 -9 -21 -20 -38 -22 -33 -27 -21
-8 20 10 23 28 34 28 18z m882 -15 c-7 -7 -12 -8 -12 -2 0 14 12 26 19 19 2
-3 -1 -11 -7 -17z m3613 -8 c-3 -5 -12 -10 -18 -10 -7 0 -6 4 3 10 19 12 23
12 15 0z m-4482 -48 c-13 -27 -25 -58 -26 -69 -1 -20 -37 -52 -37 -34 0 6 4
12 9 15 4 3 11 24 14 47 5 36 39 89 57 89 4 0 -4 -22 -17 -48z m3997 38 c0 -5
-8 -10 -17 -11 -10 0 -36 -9 -58 -19 -45 -20 -42 -23 48 -40 32 -7 57 -13 55
-15 -2 -1 -58 -30 -125 -64 l-122 -60 2 37 c2 43 13 55 40 40 28 -14 42 13 40
79 0 8 78 45 135 62 1 1 2 -3 2 -9z m-3080 -14 c0 -3 -4 -8 -10 -11 -5 -3 -10
-1 -10 4 0 6 5 11 10 11 6 0 10 -2 10 -4z m-893 -38 c-3 -8 -6 -5 -6 6 -1 11
2 17 5 13 3 -3 4 -12 1 -19z m3205 -15 c10 -9 18 -24 18 -33 0 -21 -36 -55
-44 -42 -3 5 1 15 9 22 21 18 19 35 -7 53 -15 10 -18 16 -9 16 8 1 23 -6 33
-16z m893 -33 c-3 -5 -12 -10 -18 -10 -7 0 -6 4 3 10 19 12 23 12 15 0z
m-2944 -23 c-10 -9 -11 -8 -5 6 3 10 9 15 12 12 3 -3 0 -11 -7 -18z m2889 3
c-24 -15 -36 -11 -14 4 10 8 21 12 24 10 2 -3 -2 -9 -10 -14z m-4223 -8 c-18
-20 -22 -78 -8 -100 6 -10 10 -7 15 12 3 14 11 26 16 26 13 0 13 -27 0 -35
-20 -13 -9 -44 31 -85 22 -23 38 -48 35 -55 -3 -8 0 -15 6 -17 7 -3 9 -12 5
-22 -10 -25 -56 -17 -79 15 -23 30 -61 204 -52 234 8 26 24 45 37 45 5 0 3 -8
-6 -18z m993 8 c0 -5 -5 -10 -11 -10 -5 0 -7 5 -4 10 3 6 8 10 11 10 2 0 4 -4
4 -10z m3200 -24 c0 -2 -9 -6 -20 -9 -11 -3 -18 -1 -14 4 5 9 34 13 34 5z
m-2950 -36 c0 -5 -4 -10 -10 -10 -5 0 -10 5 -10 10 0 6 5 10 10 10 6 0 10 -4
10 -10z m2110 -15 c0 -8 -4 -15 -10 -15 -5 0 -7 7 -4 15 4 8 8 15 10 15 2 0 4
-7 4 -15z m-2020 -25 c-12 -16 -16 -30 -10 -30 6 0 8 -5 4 -11 -4 -8 -9 -7
-15 2 -9 15 16 69 32 69 6 0 1 -13 -11 -30z m230 9 c0 -5 -4 -9 -10 -9 -5 0
-10 7 -10 16 0 8 5 12 10 9 6 -3 10 -10 10 -16z m2560 -9 c-8 -5 -19 -10 -25
-10 -5 0 -3 5 5 10 8 5 20 10 25 10 6 0 3 -5 -5 -10z m-4050 -66 c0 -8 -5 -12
-10 -9 -6 4 -8 11 -5 16 9 14 15 11 15 -7z m3361 -17 c-10 -9 -11 -8 -5 6 3
10 9 15 12 12 3 -3 0 -11 -7 -18z m-10 -102 c5 4 9 2 9 -3 0 -6 -6 -12 -14
-15 -10 -4 -15 8 -19 51 -2 31 -2 62 2 67 3 6 7 -16 9 -48 2 -33 7 -55 13 -52z
m574 65 c-3 -5 -12 -10 -18 -10 -7 0 -6 4 3 10 19 12 23 12 15 0z m3155 0 c13
-8 13 -10 -2 -10 -9 0 -20 5 -23 10 -8 13 5 13 25 0z m-8737 -69 c-63 -60
-203 -180 -429 -368 -136 -114 -226 -184 -230 -180 -2 2 53 56 123 119 135
122 182 162 383 327 69 56 134 110 145 119 25 21 68 50 75 51 3 0 -27 -31 -67
-68z m2838 49 c4 0 6 -7 3 -15 -8 -19 -24 -20 -24 -1 0 8 -3 16 -7 19 -5 2 -2
2 5 0 8 -1 18 -3 23 -3z m5955 -100 c18 -26 44 -74 60 -107 15 -32 31 -60 34
-63 3 -3 19 -31 34 -63 15 -32 43 -80 62 -108 19 -28 34 -54 34 -58 0 -4 10
-12 23 -18 27 -12 116 -58 212 -109 65 -34 68 -37 46 -46 -14 -5 -56 -7 -95
-6 l-69 3 -11 40 c-10 33 -16 40 -45 46 -19 4 -39 6 -45 4 -28 -9 -156 -15
-154 -8 4 15 -14 58 -39 91 -13 17 -21 37 -18 43 7 10 -2 39 -31 106 -8 17
-14 49 -14 71 0 23 -4 44 -10 47 -5 3 -10 24 -10 46 0 21 -4 39 -10 39 -5 0
-10 9 -10 20 0 11 5 20 10 20 6 0 10 -5 10 -11 0 -5 4 -8 10 -4 5 3 1 14 -10
25 -12 12 -20 33 -19 53 0 28 2 30 12 14 7 -10 26 -40 43 -67z m-6088 50 c-7
-10 -14 -17 -17 -15 -4 4 18 35 25 35 2 0 -1 -9 -8 -20z m-1008 -330 c0 -5 -5
-10 -11 -10 -5 0 -7 5 -4 10 3 6 8 10 11 10 2 0 4 -4 4 -10z m767 -28 c31 -20
-14 -158 -73 -226 l-26 -29 -24 26 c-14 15 -32 27 -41 27 -14 0 -14 2 3 16 10
8 13 13 7 9 -14 -7 -18 11 -4 19 4 3 11 18 14 33 6 33 95 132 117 133 8 0 21
-4 27 -8z m5654 -114 c5 -9 9 -29 9 -44 l0 -27 86 7 c75 5 85 4 75 -8 -10 -12
-8 -19 8 -35 26 -26 27 -47 4 -56 -23 -8 -484 -27 -491 -20 -4 3 -8 18 -10 33
-2 15 -9 30 -15 34 -20 12 2 22 64 26 44 3 62 9 69 23 7 12 7 20 0 24 -5 3
-10 15 -10 25 0 20 20 26 105 33 73 6 96 3 106 -15z m-593 -65 l3 -31 60 5
c53 5 59 4 60 -13 0 -11 2 -28 4 -39 6 -28 -58 -64 -83 -48 -11 7 -57 8 -131
3 -63 -3 -131 -3 -150 1 -20 4 -29 7 -21 8 13 1 13 2 0 11 -8 5 -11 12 -7 16
4 4 -1 13 -11 20 -15 11 -13 13 18 18 19 4 57 8 83 10 48 4 78 16 41 16 -10 0
-27 7 -37 14 -17 13 -17 15 -1 30 13 13 32 16 93 14 l76 -3 3 -32z m-1855 20
c-7 -2 -19 -2 -25 0 -7 3 -2 5 12 5 14 0 19 -2 13 -5z m-3660 -30 c-7 -2 -19
-2 -25 0 -7 3 -2 5 12 5 14 0 19 -2 13 -5z m7847 -53 c0 -5 -3 -10 -7 -10 -5
-1 -28 -5 -52 -9 -45 -9 -102 1 -71 13 40 14 130 19 130 6z m-3732 -26 c-15
-8 -31 -26 -34 -39 -5 -21 -12 -25 -45 -25 -28 0 -41 5 -49 19 -5 11 -20 21
-32 23 -12 2 -23 8 -25 15 -5 14 31 19 137 21 72 1 74 1 48 -14z m279 -30 c-3
-3 -12 -4 -19 -1 -8 3 -5 6 6 6 11 1 17 -2 13 -5z m1850 -34 c3 -11 9 -20 13
-20 12 0 9 -54 -4 -72 -18 -24 -84 -35 -92 -14 -3 9 -12 16 -20 16 -8 0 -14 5
-14 10 0 6 5 10 10 10 6 0 10 5 10 10 0 6 -22 10 -50 10 -34 0 -49 4 -47 12 1
7 -14 17 -33 24 -32 11 -27 12 80 21 63 6 121 11 128 11 8 1 16 -7 19 -18z
m-639 -7 c-9 -10 -13 -24 -11 -30 4 -10 -17 -13 -79 -14 -45 0 -76 -3 -68 -6
8 -2 22 -7 30 -9 13 -5 13 -6 0 -14 -13 -9 -13 -10 0 -10 11 0 10 -3 -4 -11
-15 -9 -16 -13 -5 -20 10 -6 11 -9 2 -9 -23 0 -13 -20 10 -20 20 -1 21 -2 5
-14 -10 -7 -15 -15 -12 -19 9 -9 -54 -19 -77 -12 -17 6 -19 9 -8 16 9 5 10 9
2 9 -6 0 -14 13 -18 29 -3 16 -13 32 -21 35 -9 3 -12 10 -9 16 3 5 1 10 -4 10
-6 0 -11 11 -11 25 0 14 5 25 11 25 5 0 7 5 4 10 -4 6 9 10 32 10 65 1 176 10
181 15 3 3 19 5 35 5 28 0 29 -1 15 -17z m205 5 c-2 -5 -13 -8 -24 -8 -10 0
-19 -4 -19 -10 0 -6 35 -10 84 -10 93 0 116 -5 116 -26 0 -8 6 -14 13 -14 6 0
4 -5 -5 -11 -24 -13 -23 -29 2 -29 11 0 20 -4 20 -10 0 -11 -99 -13 -116 -2
-6 4 -10 20 -10 35 2 34 -28 45 -77 29 l-32 -10 45 -2 c44 -3 45 -3 10 -9 -40
-7 -52 -34 -23 -57 17 -14 16 -15 -12 -9 -62 14 -143 17 -165 5 -28 -15 -41
-3 -16 16 16 11 17 14 4 14 -10 0 -15 9 -15 25 0 27 4 30 27 15 11 -7 12 -10
2 -10 -10 0 -10 -4 2 -16 14 -14 23 -14 83 -1 38 8 58 15 45 16 -20 1 -23 6
-20 34 3 29 0 32 -27 36 l-30 4 29 6 c42 8 115 7 109 -1z m125 -15 c-10 -2
-26 -2 -35 0 -10 3 -2 5 17 5 19 0 27 -2 18 -5z m185 -100 c-7 -2 -21 -2 -30
0 -10 3 -4 5 12 5 17 0 24 -2 18 -5z m-4028 -42 c-21 -43 -29 -39 -8 4 9 19
18 33 21 31 2 -2 -4 -18 -13 -35z m4180 12 c-4 -10 -8 -24 -8 -30 0 -7 -10
-13 -21 -14 -18 -1 -18 -2 4 -8 17 -5 21 -9 12 -14 -21 -14 -67 16 -70 45 -3
28 -6 27 77 36 9 1 11 -4 6 -15z m-278 1 c-3 -3 -12 -4 -19 -1 -8 3 -5 6 6 6
11 1 17 -2 13 -5z m17 -33 c7 -10 -31 -18 -59 -13 l-20 5 20 8 c27 11 53 11
59 0z m-587 -42 c-14 -8 -22 -8 -30 0 -8 8 -3 11 19 11 25 -1 27 -2 11 -11z
m130 5 c-3 -3 -12 -4 -19 -1 -8 3 -5 6 6 6 11 1 17 -2 13 -5z m453 -14 c-20
-13 -40 -13 -40 0 0 6 12 10 28 10 21 0 24 -2 12 -10z m-542 -6 l23 -7 -23
-11 c-26 -13 -77 2 -55 16 15 9 25 10 55 2z m512 -24 c11 -7 -1 -9 -40 -8 -38
0 -49 3 -35 9 28 11 57 10 75 -1z m-1797 -17 c-7 -2 -19 -2 -25 0 -7 3 -2 5
12 5 14 0 19 -2 13 -5z m68 -3 c5 0 9 -4 9 -10 0 -5 -11 -10 -25 -10 -16 0
-25 6 -25 16 0 11 5 14 16 10 9 -3 20 -6 25 -6z m1724 -10 c4 -6 -8 -10 -30
-10 -22 0 -34 4 -30 10 3 6 17 10 30 10 13 0 27 -4 30 -10z m-1130 -49 c3 -5
1 -12 -4 -15 -12 -8 -41 3 -41 15 0 12 37 12 45 0z m982 -31 c-13 -11 -26 -15
-31 -10 -14 14 12 39 34 33 19 -5 19 -6 -3 -23z m-971 -37 c-1 -28 -6 -39 -18
-41 -13 -2 -18 3 -18 18 0 12 -4 19 -9 16 -4 -3 -6 6 -3 19 3 18 11 25 27 25
19 0 22 -5 21 -37z m627 10 c-7 -2 -19 -2 -25 0 -7 3 -2 5 12 5 14 0 19 -2 13
-5z m405 -10 c-10 -2 -28 -2 -40 0 -13 2 -5 4 17 4 22 1 32 -1 23 -4z m-3070
-60 c-6 -7 -18 -13 -27 -12 -12 0 -11 2 4 8 19 8 19 8 -2 15 -13 4 -23 11 -23
16 0 4 13 3 30 -3 22 -8 27 -14 18 -24z m3077 17 c19 -7 19 -8 2 -15 -22 -9
-86 0 -101 15 -12 12 69 13 99 0z m-3015 -25 c9 -11 10 -15 1 -15 -7 0 -19 7
-27 15 -13 13 -13 15 -1 15 8 0 20 -7 27 -15z m165 -4 c17 -10 32 -26 34 -36
4 -24 50 -70 78 -79 25 -8 40 -55 22 -67 -14 -8 -87 48 -88 68 -1 7 -7 10 -14
7 -7 -2 -19 6 -25 18 -7 13 -21 37 -31 53 -20 31 -26 56 -13 54 4 0 21 -8 37
-18z m2765 -1 c18 -11 12 -17 -20 -20 -49 -4 -57 -1 -36 15 23 17 35 18 56 5z
m-2860 -20 c0 -5 -4 -10 -10 -10 -5 0 -10 5 -10 10 0 6 5 10 10 10 6 0 10 -4
10 -10z m-120 -15 c0 -1 -9 -5 -19 -8 -13 -3 -18 -1 -14 9 4 10 33 10 33 -1z
m2190 5 c0 -13 -120 -13 -140 0 -10 7 9 10 63 10 45 0 77 -4 77 -10z m-2125
-10 c3 -5 1 -10 -4 -10 -6 0 -11 5 -11 10 0 6 2 10 4 10 3 0 8 -4 11 -10z
m111 -15 c24 -18 7 -19 -26 0 -16 9 -19 14 -9 15 8 0 24 -7 35 -15z m2284 -42
c-30 -3 -60 -9 -67 -15 -9 -7 -13 -7 -13 0 0 6 -8 13 -17 15 -10 3 20 4 67 4
58 0 68 -2 30 -4z m-325 -12 c-3 -5 3 -12 12 -14 12 -3 10 -5 -7 -6 -36 -1
-71 10 -64 20 3 5 19 9 35 9 17 0 28 -4 24 -9z m-456 -27 c11 -10 -16 -20 -77
-26 -37 -3 6 -4 95 -1 89 2 166 2 171 -1 5 -3 4 -21 -2 -41 l-11 -36 -55 5
c-43 4 -48 3 -25 -4 22 -6 3 -8 -67 -7 -54 2 -98 0 -98 -4 0 -5 -21 -10 -47
-12 -27 -2 29 -4 124 -5 103 -1 174 -6 178 -12 4 -7 -10 -8 -39 -5 -29 4 -46
2 -46 -5 0 -5 9 -10 20 -10 27 0 25 -18 -2 -23 -22 -4 -22 -4 2 -6 14 -1 32
-6 40 -11 10 -6 -22 -9 -95 -9 -60 0 -164 -4 -230 -9 -66 -5 -124 -5 -129 0
-19 16 -58 9 -63 -12 -5 -18 -14 -20 -87 -20 -74 0 -305 -21 -401 -36 -27 -4
-37 -3 -30 4 6 6 24 12 40 15 24 3 22 4 -12 6 -23 0 -44 7 -47 14 -3 9 -9 7
-19 -5 -16 -20 -103 -27 -91 -7 4 7 0 9 -14 5 -25 -8 -38 29 -15 43 11 6 5 10
-23 14 -35 6 -39 10 -41 37 -1 16 3 30 9 30 7 0 6 5 -2 15 -7 9 -11 17 -9 20
6 6 198 34 379 55 204 24 291 30 352 21 34 -4 73 -5 87 0 19 5 7 8 -44 9 l-70
2 54 9 c30 5 56 10 57 12 4 4 279 -5 283 -9z m534 9 c-7 -2 -19 -2 -25 0 -7 3
-2 5 12 5 14 0 19 -2 13 -5z m-127 -10 c-14 -4 -16 -7 -6 -13 8 -5 15 -19 17
-31 2 -13 8 -28 13 -33 7 -7 2 -15 -12 -23 l-23 -12 23 -1 c12 0 22 -4 22 -10
0 -5 5 -10 11 -10 6 0 17 -7 26 -15 9 -10 19 -12 27 -7 6 5 35 17 64 26 40 13
57 14 73 6 16 -9 18 -14 8 -26 -6 -8 -19 -14 -29 -14 -10 0 -20 -7 -24 -15 -3
-9 -17 -15 -33 -15 -16 1 -71 -5 -123 -13 -81 -13 -97 -13 -111 -1 -8 8 -25
14 -37 14 -34 0 -30 52 4 71 l26 13 -26 23 c-14 12 -26 27 -26 33 0 5 -8 10
-17 10 -12 0 -7 6 12 16 17 8 34 19 40 25 5 5 34 8 65 8 30 -1 46 -4 36 -6z
m-1949 -76 c12 1 23 -7 26 -16 4 -15 12 -16 75 -7 69 9 71 9 107 -20 20 -16
47 -35 60 -43 35 -23 43 -43 55 -135 12 -98 7 -132 -22 -139 -17 -5 -20 -11
-15 -34 5 -26 2 -31 -26 -41 -26 -10 -33 -9 -39 3 -7 12 -12 11 -29 -6 -32
-32 -39 -71 -22 -108 12 -23 13 -40 7 -64 -8 -27 -15 -32 -42 -34 -27 -1 -35
4 -45 25 -15 34 -36 51 -64 52 -28 0 -30 16 -3 32 28 18 25 28 -7 19 -14 -4
-32 -16 -40 -28 -12 -18 -11 -23 6 -44 12 -14 20 -18 21 -11 0 22 54 -26 56
-51 1 -12 -7 -31 -17 -43 -17 -18 -17 -22 -4 -40 19 -25 21 -56 3 -32 -7 8
-28 21 -45 28 -18 7 -30 16 -27 21 3 5 -6 9 -20 9 -34 0 -77 17 -92 38 -8 11
-13 12 -14 5 0 -21 -30 -15 -30 5 0 10 -11 29 -25 42 -14 13 -25 34 -25 47 0
36 -26 91 -60 124 -30 30 -36 59 -24 106 4 13 10 20 15 17 5 -3 9 3 10 13 0
10 1 52 2 93 l2 75 36 3 c47 4 89 -13 89 -36 0 -15 10 -18 83 -19 85 -1 122
-12 176 -54 13 -11 32 -19 43 -19 35 0 3 34 -61 64 -33 16 -58 33 -55 38 3 4
-1 8 -10 8 -8 0 -16 -4 -18 -9 -1 -5 -26 -6 -55 -4 -39 4 -50 9 -46 19 3 8 0
20 -5 27 -21 25 7 77 42 77 9 0 16 7 16 15 0 8 -4 15 -10 15 -5 0 -10 7 -10
16 0 13 6 15 28 8 15 -4 37 -7 49 -7z m3293 -8 c9 -5 -21 -9 -76 -9 -63 0 -96
4 -110 14 -17 13 -8 14 76 9 52 -3 102 -9 110 -14z m58 -26 c-10 -2 -26 -2
-35 0 -10 3 -2 5 17 5 19 0 27 -2 18 -5z m59 -49 c-3 -3 -12 -4 -19 -1 -8 3
-5 6 6 6 11 1 17 -2 13 -5z m-192 -34 c3 -5 1 -10 -5 -10 -6 0 -8 -4 -5 -10 3
-5 -1 -10 -10 -10 -9 0 -13 5 -10 10 3 6 -4 14 -17 19 -21 9 -21 10 9 10 17 1
35 -3 38 -9z m235 -10 c-19 -4 -47 -12 -62 -18 -17 -7 -29 -8 -33 -2 -9 15 36
28 95 28 l35 0 -35 -8z m-5027 -93 c18 -26 19 -34 8 -83 -7 -30 -17 -54 -22
-54 -5 0 -9 -4 -9 -9 0 -5 -7 -24 -15 -44 -11 -28 -19 -34 -35 -30 -27 7 -26
40 6 166 28 112 37 132 42 102 3 -11 13 -33 25 -48z m2917 53 c-14 -4 -43 -8
-65 -8 l-40 1 35 7 c19 4 49 8 65 8 29 0 29 0 5 -8z m263 3 c-18 -2 -48 -2
-65 0 -18 2 -4 4 32 4 36 0 50 -2 33 -4z m-3386 -75 c-3 -7 -5 -2 -5 12 0 14
2 19 5 13 2 -7 2 -19 0 -25z m1246 -2 c-5 -24 -27 -37 -50 -29 -31 11 -4 53
33 53 17 0 20 -5 17 -24z m4240 -23 c-13 -2 -33 -2 -45 0 -13 2 -3 4 22 4 25
0 35 -2 23 -4z m-4256 -54 c1 -8 -14 -27 -33 -42 -36 -31 -47 -20 -14 13 11
11 20 22 20 25 0 3 0 10 0 16 0 16 25 5 27 -12z m1080 -27 c0 -10 -7 -19 -14
-19 -17 0 -17 24 0 30 6 3 13 6 14 6 1 1 1 -7 0 -17z m2628 2 c148 -8 577 -53
584 -60 12 -11 -11 -13 -60 -4 -244 44 -953 74 -1208 51 -248 -22 -449 -68
-566 -129 -119 -62 -216 -149 -231 -206 -3 -15 -12 -30 -18 -32 -8 -3 -10 -24
-6 -65 6 -66 1 -78 -25 -52 -14 14 -16 28 -11 76 3 33 10 65 16 72 5 6 7 15 3
19 -4 3 1 12 11 19 10 7 16 17 14 22 -9 27 127 125 232 168 182 75 349 109
625 127 115 7 476 4 640 -6z m-4719 -41 c-2 -16 -5 -31 -5 -35 -1 -5 -5 -8
-11 -8 -10 0 -8 23 5 53 11 25 16 21 11 -10z m1022 11 c-11 -11 -23 -14 -35
-9 -16 7 -15 9 7 15 40 12 45 11 28 -6z m4990 -1 c-10 -2 -28 -2 -40 0 -13 2
-5 4 17 4 22 1 32 -1 23 -4z m-4143 -98 c0 -14 -10 -23 -32 -30 -18 -5 -33
-15 -33 -22 0 -17 -11 -16 -35 0 -12 10 -14 16 -7 21 7 4 12 12 12 17 0 6 -4
7 -10 4 -5 -3 -10 -4 -10 -1 0 13 58 35 85 33 23 -1 30 -7 30 -22z m4415 -17
c0 -5 31 -6 75 -2 67 6 75 5 69 -10 -4 -11 0 -16 12 -17 11 -1 -3 -5 -31 -9
-51 -8 -122 -3 -140 10 -5 4 -28 13 -50 21 -37 12 -38 13 -15 19 31 7 80 1 80
-12z m-3680 -18 c0 -5 -2 -10 -4 -10 -3 0 -8 5 -11 10 -3 6 -1 10 4 10 6 0 11
-4 11 -10z m-826 -36 c20 -8 21 -24 2 -24 -8 0 -16 7 -20 15 -6 17 -4 18 18 9z
m1381 -18 c8 -7 12 -16 9 -19 -5 -5 -64 21 -64 29 0 10 43 3 55 -10z m-368
-12 c-3 -3 -12 -4 -19 -1 -8 3 -5 6 6 6 11 1 17 -2 13 -5z m-2937 -40 c0 -11
-158 -121 -181 -126 -7 -2 -23 -13 -37 -25 -14 -13 -30 -23 -37 -23 -7 0 -27
-15 -46 -32 -52 -49 -92 -83 -109 -92 -8 -4 1 6 20 23 41 37 28 41 -20 6 -18
-14 -36 -23 -38 -20 -9 8 20 36 77 73 31 20 62 42 69 49 7 7 24 16 38 19 13 4
29 15 35 25 5 11 14 17 19 14 5 -3 14 3 19 14 6 11 24 22 40 26 16 3 32 12 34
19 3 8 18 17 34 21 33 8 55 24 48 36 -3 4 4 7 15 6 11 -1 20 -6 20 -13z m1900
-50 c0 -8 -4 -12 -10 -9 -5 3 -10 10 -10 16 0 5 5 9 10 9 6 0 10 -7 10 -16z
m-802 -19 c-3 -3 -9 2 -12 12 -6 14 -5 15 5 6 7 -7 10 -15 7 -18z m842 -3 c0
-15 -2 -15 -10 -2 -13 20 -13 33 0 25 6 -3 10 -14 10 -23z m447 12 c-3 -3 -12
-4 -19 -1 -8 3 -5 6 6 6 11 1 17 -2 13 -5z m220 0 c-3 -3 -12 -4 -19 -1 -8 3
-5 6 6 6 11 1 17 -2 13 -5z m-803 -52 c-9 -32 -34 -28 -34 6 0 16 3 32 7 36
13 12 33 -19 27 -42z m-2334 35 c0 -2 -19 -21 -42 -42 l-42 -40 33 43 c27 34
51 53 51 39z m2393 -14 c-7 -2 -21 -2 -30 0 -10 3 -4 5 12 5 17 0 24 -2 18 -5z
m14 -31 c-10 -10 -14 -22 -10 -25 3 -4 -3 -7 -15 -7 -42 0 -15 49 27 50 11 0
11 -4 -2 -18z m673 -52 c0 -5 -7 -10 -15 -10 -8 0 -15 5 -15 10 0 6 7 10 15
10 8 0 15 -4 15 -10z m-48 -32 c-9 -9 -15 -9 -24 0 -9 9 -7 12 12 12 19 0 21
-3 12 -12z m55 -24 c-3 -3 -12 -4 -19 -1 -8 3 -5 6 6 6 11 1 17 -2 13 -5z
m814 -44 c3 -8 4 -21 1 -29 -4 -9 -9 -6 -18 10 -7 13 -13 27 -14 32 0 13 25 3
31 -13z"/>
<path d="M13778 4223 c7 -3 16 -2 19 1 4 3 -2 6 -13 5 -11 0 -14 -3 -6 -6z"/>
<path d="M9780 2530 c-6 -11 -7 -20 -2 -20 6 0 12 9 15 20 3 11 3 20 1 20 -2
0 -8 -9 -14 -20z"/>
<path d="M12220 1620 c-22 -7 -21 -8 13 -9 20 -1 37 4 37 9 0 11 -14 11 -50 0z"/>
<path d="M10920 980 c-13 -8 -12 -10 3 -10 9 0 17 5 17 10 0 12 -1 12 -20 0z"/>
<path d="M10748 973 c12 -2 30 -2 40 0 9 3 -1 5 -23 4 -22 0 -30 -2 -17 -4z"/>
<path d="M10268 923 c7 -3 16 -2 19 1 4 3 -2 6 -13 5 -11 0 -14 -3 -6 -6z"/>
<path d="M10988 833 c7 -3 16 -2 19 1 4 3 -2 6 -13 5 -11 0 -14 -3 -6 -6z"/>
<path d="M9805 900 c3 -5 12 -7 20 -3 21 7 19 13 -6 13 -11 0 -18 -4 -14 -10z"/>
<path d="M9538 711 c-10 -10 -18 -20 -18 -24 0 -3 21 -28 48 -55 72 -76 182
-137 182 -101 0 5 5 7 11 3 7 -4 10 -1 7 7 -3 8 7 19 24 26 15 7 28 18 28 26
0 20 -68 50 -110 49 -28 -1 -40 5 -67 36 -18 20 -33 40 -33 45 0 14 -55 6 -72
-12z m148 -113 c-11 -6 -22 -6 -32 2 -24 21 -16 30 17 18 27 -9 29 -12 15 -20z
m-35 -15 l24 -27 -24 15 c-14 9 -27 21 -29 27 -6 19 3 14 29 -15z"/>
<path d="M7690 130 c-8 -5 -12 -12 -9 -15 4 -3 12 1 19 10 14 17 11 19 -10 5z"/>
<path d="M12286 4526 c3 -9 11 -16 16 -16 13 0 5 23 -10 28 -7 2 -10 -2 -6
-12z"/>
<path d="M12240 4521 c0 -5 7 -14 15 -21 13 -10 15 -9 15 9 0 12 -6 21 -15 21
-8 0 -15 -4 -15 -9z"/>
<path d="M12315 4510 c-4 -7 2 -21 13 -32 16 -16 24 -18 38 -9 17 9 17 10 2
11 -9 0 -23 9 -31 21 -10 14 -17 17 -22 9z"/>
<path d="M13031 4504 c0 -11 3 -14 6 -6 3 7 2 16 -1 19 -3 4 -6 -2 -5 -13z"/>
<path d="M12414 4495 c-18 -13 -18 -14 4 -8 12 3 25 9 28 14 8 14 -10 11 -32
-6z"/>
<path d="M482 4489 c4 -13 113 -78 131 -79 16 0 -37 59 -62 69 -56 21 -74 24
-69 10z"/>
<path d="M11780 4490 c0 -5 -14 -10 -31 -10 -20 0 -39 -8 -50 -22 -25 -28 -24
-31 7 -25 16 3 28 0 31 -9 8 -20 29 -17 52 7 12 13 24 18 33 13 10 -6 10 -4
-1 9 -7 9 -10 17 -6 17 4 0 2 7 -5 15 -14 17 -30 20 -30 5z m-30 -30 c0 -5 -7
-10 -15 -10 -8 0 -15 5 -15 10 0 6 7 10 15 10 8 0 15 -4 15 -10z"/>
<path d="M12209 4483 c-1 -5 -1 -17 0 -28 1 -11 -17 -40 -39 -64 -23 -25 -40
-53 -40 -67 0 -21 5 -24 40 -24 29 0 42 -5 50 -20 6 -11 17 -20 25 -20 17 0
20 -16 5 -25 -5 -3 -10 -11 -10 -16 0 -5 22 7 49 28 56 41 56 44 -1 113 -16
19 -28 47 -28 62 0 16 -4 28 -9 28 -5 0 -11 9 -14 20 -5 19 -26 28 -28 13z"/>
<path d="M372 4443 c32 -34 96 -61 161 -69 70 -8 76 6 15 36 -24 11 -59 29
-78 40 -21 12 -51 18 -77 17 l-42 -2 21 -22z"/>
<path d="M10793 4420 c0 -25 2 -35 4 -22 2 12 2 32 0 45 -2 12 -4 2 -4 -23z"/>
<path d="M12042 4411 c-24 -15 -52 -42 -62 -59 l-19 -31 37 1 c20 0 46 -2 58
-6 17 -6 22 -1 34 34 11 34 11 43 1 50 -9 5 -10 10 -2 14 12 8 15 26 4 25 -5
0 -27 -13 -51 -28z"/>
<path d="M11278 4409 c-17 -10 -26 -49 -10 -49 4 1 18 7 31 14 26 14 55 11 45
-5 -3 -5 0 -9 5 -9 6 0 11 -7 11 -15 0 -8 4 -15 10 -15 12 0 50 77 42 84 -9
10 -116 6 -134 -5z"/>
<path d="M11815 4394 c-9 -14 -15 -34 -12 -45 3 -10 0 -20 -7 -23 -6 -2 -6 -5
-1 -5 18 -1 41 20 28 25 -8 4 -8 14 3 40 17 41 13 44 -11 8z"/>
<path d="M770 4400 c0 -11 42 -30 63 -30 17 1 -32 40 -49 40 -8 0 -14 -5 -14
-10z"/>
<path d="M4186 4401 c-4 -5 -23 -7 -44 -4 l-37 5 31 -30 c17 -17 51 -36 75
-43 51 -15 97 -49 91 -68 -2 -7 6 -23 18 -36 13 -13 28 -34 34 -47 6 -12 22
-28 36 -34 111 -53 105 -48 104 -88 -1 -27 2 -36 12 -32 8 3 11 0 8 -9 -3 -7
3 -18 14 -24 25 -14 37 -52 13 -44 -9 2 2 -11 23 -30 52 -46 42 -59 -32 -41
-68 16 -112 18 -112 4 0 -5 -13 -10 -29 -10 -21 0 -30 -6 -35 -22 -11 -42 -7
-58 15 -58 11 0 34 -13 51 -30 16 -16 35 -30 43 -30 22 0 59 -24 98 -62 24
-24 37 -32 37 -22 0 20 24 44 43 44 9 0 18 6 21 13 5 10 7 10 12 0 7 -15 44
-17 44 -3 0 6 9 10 20 10 13 0 20 7 20 20 0 11 -7 20 -15 20 -9 0 -12 6 -9 15
4 8 10 12 15 9 5 -3 9 0 9 5 0 6 -6 11 -13 11 -17 0 -53 39 -61 66 -8 28 12
74 33 74 16 0 37 -5 149 -35 63 -17 64 -17 78 4 8 12 24 21 35 21 11 0 19 7
19 18 -1 45 -30 176 -42 188 -9 10 -56 15 -158 19 -121 5 -151 9 -185 27 -46
24 -168 51 -173 38 -5 -14 -54 8 -84 38 -42 39 -37 59 18 68 l45 6 -27 29
c-25 26 -34 29 -91 29 -41 0 -72 6 -87 16 -15 9 -26 11 -30 5z m234 -601 c0
-5 -2 -10 -4 -10 -3 0 -8 5 -11 10 -3 6 -1 10 4 10 6 0 11 -4 11 -10z"/>
<path d="M11639 4383 c-13 -16 -12 -17 4 -4 16 13 21 21 13 21 -2 0 -10 -8
-17 -17z"/>
<path d="M10770 4365 c12 -14 5 -55 -11 -65 -4 -3 3 -10 15 -16 22 -10 23 -9
22 30 0 23 -6 47 -12 54 -17 17 -29 15 -14 -3z"/>
<path d="M11670 4370 c0 -5 6 -10 14 -10 8 0 18 5 21 10 3 6 -3 10 -14 10 -12
0 -21 -4 -21 -10z"/>
<path d="M866 4361 c5 -5 23 -13 39 -17 27 -7 29 -6 16 9 -7 10 -25 17 -39 17
-16 0 -22 -4 -16 -9z"/>
<path d="M4706 4335 c4 -8 8 -15 10 -15 2 0 4 7 4 15 0 8 -4 15 -10 15 -5 0
-7 -7 -4 -15z"/>
<path d="M11450 4330 c0 -5 5 -10 11 -10 5 0 7 5 4 10 -3 6 -8 10 -11 10 -2 0
-4 -4 -4 -10z"/>
<path d="M11700 4331 c0 -5 5 -13 10 -16 6 -3 10 -2 10 4 0 5 -4 13 -10 16 -5
3 -10 2 -10 -4z"/>
<path d="M4780 4310 c0 -5 5 -10 11 -10 5 0 7 5 4 10 -3 6 -8 10 -11 10 -2 0
-4 -4 -4 -10z"/>
<path d="M11277 4313 c-16 -15 -6 -34 15 -31 29 4 38 38 10 38 -10 0 -22 -3
-25 -7z"/>
<path d="M11387 4313 c-11 -11 -8 -20 9 -27 8 -3 12 -2 9 4 -3 6 -1 10 5 10 6
0 8 5 5 10 -7 12 -19 13 -28 3z"/>
<path d="M1601 4294 c6 -8 20 -14 31 -14 10 0 16 -4 13 -10 -6 -10 37 -24 56
-18 17 6 -38 39 -78 49 -28 6 -32 5 -22 -7z"/>
<path d="M5342 4290 c0 -14 2 -19 5 -12 2 6 2 18 0 25 -3 6 -5 1 -5 -13z"/>
<path d="M11767 4290 c-10 -10 -15 -20 -10 -23 4 -3 16 6 26 19 21 28 10 31
-16 4z"/>
<path d="M4180 4290 c0 -5 7 -10 15 -10 8 0 15 5 15 10 0 6 -7 10 -15 10 -8 0
-15 -4 -15 -10z"/>
<path d="M4812 4288 c3 -7 12 -14 21 -16 12 -2 15 1 11 12 -7 19 -38 22 -32 4z"/>
<path d="M11336 4263 c-4 -21 -8 -50 -10 -65 -2 -16 -4 -32 -5 -36 0 -5 -9
-17 -19 -28 -53 -57 -102 -136 -117 -186 -9 -31 -26 -69 -38 -84 -12 -16 -22
-41 -23 -55 -1 -23 2 -26 16 -17 15 10 30 39 87 168 l25 54 16 -27 c9 -14 23
-28 32 -31 11 -3 9 -6 -8 -11 -13 -4 -21 -13 -18 -20 2 -7 0 -17 -5 -22 -29
-29 40 -65 82 -43 19 11 21 10 15 -5 -5 -14 -2 -16 16 -10 63 19 122 26 205
23 78 -2 95 0 110 15 16 15 16 19 3 27 -12 8 -12 10 5 10 12 0 15 3 10 9 -6 6
-42 4 -93 -6 -46 -8 -85 -13 -88 -10 -5 5 6 67 22 126 6 19 4 22 -7 16 -11 -6
-12 -5 -1 6 6 7 12 28 12 46 0 23 5 33 15 33 11 0 6 11 -16 35 -39 43 -58 46
-28 5 17 -22 20 -32 11 -43 -7 -8 -14 -45 -16 -82 -3 -52 -9 -72 -23 -82 -40
-30 -75 0 -89 78 -5 26 -4 31 5 23 6 -6 24 -9 40 -6 22 3 28 8 24 23 -4 13
-10 16 -22 10 -9 -4 -44 -14 -78 -21 -35 -7 -63 -16 -63 -20 0 -4 -8 -10 -17
-14 -10 -3 -25 -9 -33 -13 -12 -5 -13 -3 -4 8 6 8 31 50 54 94 23 44 49 87 57
96 12 14 12 17 -2 22 -8 4 -15 16 -15 27 0 34 -17 22 -24 -17z"/>
<path d="M11453 4293 c-15 -6 -18 -83 -3 -83 12 0 30 42 30 71 0 19 -5 21 -27
12z"/>
<path d="M11886 4290 c7 -8 14 -24 17 -35 4 -19 5 -19 6 1 0 12 -7 28 -16 35
-16 12 -17 12 -7 -1z"/>
<path d="M11037 4212 c3 -84 2 -82 14 -53 10 25 3 108 -10 115 -4 3 -6 -26 -4
-62z"/>
<path d="M11960 4243 c1 -32 3 -36 13 -23 7 8 19 21 27 29 8 8 10 11 4 8 -7
-4 -14 0 -18 8 -10 28 -26 15 -26 -22z"/>
<path d="M0 4225 c0 -40 3 -45 23 -45 12 -1 45 -2 74 -3 28 -1 49 1 47 5 -3 5
-11 8 -18 8 -8 0 -20 7 -27 16 -13 16 -84 64 -94 64 -3 0 -5 -20 -5 -45z"/>
<path d="M11285 4260 c-7 -11 2 -30 15 -30 4 0 10 6 13 14 6 16 -19 30 -28 16z"/>
<path d="M12014 4228 c-27 -18 -52 -31 -56 -30 -11 3 -60 -78 -120 -200 -42
-86 -57 -108 -74 -108 -24 0 -154 -115 -154 -136 0 -8 -7 -14 -16 -14 -12 0
-15 7 -12 23 4 23 4 23 -49 13 -29 -5 -53 -13 -53 -18 0 -4 -17 -8 -38 -8 -33
0 -39 -4 -59 -42 -13 -24 -26 -59 -29 -78 l-7 -35 25 23 c13 12 34 22 45 22
12 0 24 6 26 13 4 9 6 9 6 -1 1 -7 -8 -32 -19 -54 -11 -23 -18 -43 -17 -45 10
-9 96 31 106 50 26 50 48 81 60 85 17 6 -2 -32 -32 -65 -11 -13 -18 -25 -15
-28 3 -3 50 14 105 38 54 24 115 47 136 51 30 6 37 11 36 29 0 12 -3 16 -6 10
-2 -7 -10 -13 -17 -13 -33 0 69 276 121 326 11 10 28 39 37 64 27 70 53 105
91 126 19 10 35 22 35 26 0 12 -2 11 -56 -24z m-71 -73 c-3 -9 -8 -14 -10 -11
-3 3 -2 9 2 15 9 16 15 13 8 -4z m-23 -45 c-6 -11 -13 -20 -16 -20 -2 0 0 9 6
20 6 11 13 20 16 20 2 0 0 -9 -6 -20z m-160 -260 c-8 -15 -31 -30 -46 -30 -10
0 -3 25 12 41 21 23 48 14 34 -11z m-243 -106 c-3 -3 -12 -4 -19 -1 -8 3 -5 6
6 6 11 1 17 -2 13 -5z m53 -8 c0 -3 -4 -8 -10 -11 -5 -3 -10 -1 -10 4 0 6 5
11 10 11 6 0 10 -2 10 -4z m-103 -63 c-3 -3 -11 -2 -17 2 -8 5 -7 11 2 22 12
15 13 14 16 -1 2 -10 1 -20 -1 -23z"/>
<path d="M2670 4236 c0 -19 21 -34 54 -38 34 -4 44 13 21 36 -20 20 -75 22
-75 2z"/>
<path d="M1916 4232 c-3 -5 -10 -21 -16 -36 -9 -25 -7 -28 33 -45 23 -10 60
-24 82 -31 22 -7 57 -23 77 -37 20 -14 43 -23 50 -21 7 3 26 1 42 -3 23 -7 32
-4 47 14 10 12 18 25 19 29 0 3 -18 25 -40 47 -43 44 -99 65 -200 76 -30 3
-62 8 -72 11 -9 3 -19 1 -22 -4z"/>
<path d="M10746 4228 c7 -11 62 -10 68 1 3 5 -12 8 -33 7 -22 0 -37 -4 -35 -8z"/>
<path d="M4690 4190 c0 -5 5 -10 10 -10 6 0 10 5 10 10 0 6 -4 10 -10 10 -5 0
-10 -4 -10 -10z"/>
<path d="M11813 4173 c-24 -9 -13 -20 17 -15 16 2 27 8 24 13 -6 10 -21 11
-41 2z"/>
<path d="M11748 4163 c-32 -5 -38 -23 -9 -23 26 0 51 10 51 21 0 5 -3 8 -7 8
-5 -1 -20 -4 -35 -6z"/>
<path d="M12079 4133 c-13 -17 -13 -17 6 -3 11 8 22 16 24 17 2 2 0 3 -6 3 -6
0 -17 -8 -24 -17z"/>
<path d="M3746 4090 c-9 -22 -21 -40 -26 -40 -7 0 -7 -6 0 -20 6 -11 16 -20
23 -19 36 4 58 -5 93 -39 22 -20 56 -50 77 -66 39 -28 39 -29 19 -48 -11 -11
-32 -20 -48 -20 -61 -1 -72 -6 -66 -33 4 -24 2 -25 -21 -20 -14 4 -30 4 -36 1
-18 -12 1 -36 28 -36 15 0 37 -9 49 -20 12 -11 30 -20 40 -20 23 0 46 -25 37
-40 -7 -11 5 -13 29 -4 10 4 16 18 16 35 0 16 5 29 13 29 8 0 7 4 -3 11 -12 8
-11 9 6 5 11 -4 39 0 62 8 22 8 50 12 62 9 16 -4 23 0 27 16 6 22 40 29 59 12
19 -18 54 -23 54 -8 0 8 10 17 23 21 18 5 20 8 7 16 -13 9 -13 10 0 10 12 1
12 3 -2 14 -10 7 -59 16 -110 20 -51 4 -99 13 -108 20 -8 7 -23 16 -32 19 -25
9 -23 47 2 47 32 0 26 36 -7 45 -54 13 -73 32 -73 75 0 22 5 40 10 40 6 0 10
5 10 10 0 6 -9 10 -20 10 -11 0 -20 -7 -20 -15 0 -8 -9 -19 -20 -25 -17 -9
-26 -7 -51 14 -17 15 -43 26 -59 26 -23 0 -30 -7 -44 -40z m198 -384 c-6 -16
-24 -23 -24 -8 0 10 22 33 27 28 2 -2 1 -11 -3 -20z"/>
<path d="M11172 4099 c-7 -11 -11 -24 -8 -27 10 -9 28 15 24 32 -2 14 -5 13
-16 -5z"/>
<path d="M11098 4034 c3 -37 -1 -60 -12 -76 -22 -31 -20 -45 4 -23 11 10 23
16 26 12 5 -5 -32 -30 -46 -32 -14 -1 -70 -41 -74 -52 -9 -22 45 -4 81 28 17
15 38 31 46 36 8 4 23 29 34 54 l21 46 -23 28 c-12 16 -30 29 -41 30 -17 1
-19 -5 -16 -51z"/>
<path d="M10936 4058 c-9 -12 -16 -31 -16 -41 0 -10 -5 -27 -10 -38 -6 -10 -7
-19 -2 -19 11 0 32 44 42 88 9 38 7 40 -14 10z"/>
<path d="M1040 4046 c0 -25 27 -48 94 -79 42 -19 57 -13 63 22 2 14 -13 26
-61 50 -77 38 -96 39 -96 7z"/>
<path d="M535 4026 c17 -8 32 -12 34 -10 7 7 -3 12 -34 18 l-30 6 30 -14z"/>
<path d="M1412 4006 c21 -20 75 -46 82 -39 10 10 -48 53 -72 53 -20 0 -21 -2
-10 -14z"/>
<path d="M10975 4009 c-4 -6 -4 -13 -1 -16 8 -8 36 5 36 17 0 13 -27 13 -35
-1z"/>
<path d="M11033 4008 c2 -7 12 -13 22 -13 10 0 20 6 23 13 2 7 -6 12 -23 12
-17 0 -25 -5 -22 -12z"/>
<path d="M983 3983 c-13 -2 -23 -11 -23 -19 0 -11 -15 -14 -60 -14 -33 0 -60
-4 -60 -10 0 -6 -10 -5 -25 2 -14 6 -28 8 -32 5 -8 -9 46 -67 62 -67 21 0 95
-64 95 -82 0 -18 54 -58 78 -58 7 0 51 -18 98 -40 47 -22 88 -40 91 -40 2 0
16 -9 30 -20 18 -14 41 -20 73 -20 56 0 106 -23 116 -52 8 -25 -13 -41 -41
-32 -11 3 -42 9 -70 13 -27 4 -66 15 -86 23 -35 15 -36 15 -32 -2 3 -10 21
-26 41 -35 42 -20 122 -93 122 -112 0 -7 5 -13 11 -13 5 0 7 5 3 12 -5 8 0 9
17 5 13 -4 29 -7 36 -7 7 0 10 -7 7 -15 -4 -8 -2 -15 4 -15 5 0 12 9 15 20 4
14 14 20 35 20 18 0 32 6 36 16 5 14 17 16 74 11 37 -2 57 -3 45 0 -27 5 -31
22 -5 24 19 1 35 5 42 9 3 1 14 4 25 6 11 2 35 7 53 10 21 4 43 1 58 -7 20
-10 29 -10 44 -1 11 6 21 8 24 3 3 -4 21 -3 40 3 22 7 30 13 23 18 -7 4 7 8
31 8 23 0 42 5 42 10 0 6 15 9 33 9 l32 -1 -30 -8 c-23 -5 -16 -7 27 -6 41 1
58 5 58 14 0 9 -7 11 -20 7 -27 -9 -25 9 3 24 21 11 21 11 1 7 -12 -2 -28 0
-35 5 -11 7 -11 9 -1 9 24 0 4 17 -55 46 -64 32 -73 40 -73 68 0 17 6 18 60
13 54 -6 60 -5 60 12 0 23 26 31 108 31 53 0 65 3 69 18 3 14 16 18 56 20 73
3 147 30 147 53 0 5 -13 9 -28 9 -35 0 -68 34 -64 63 4 19 2 20 -15 7 -10 -8
-26 -22 -36 -32 -13 -14 -34 -18 -82 -18 l-64 0 -3 -32 c-4 -39 -31 -48 -77
-24 -16 9 -47 16 -69 16 -21 0 -44 6 -51 13 -11 10 -12 9 -6 -2 6 -11 0 -12
-31 -8 -100 15 -107 16 -184 50 -62 27 -130 48 -148 45 -9 -1 -23 1 -31 6 -10
7 -12 6 -6 -4 6 -10 2 -11 -19 -6 -18 4 -25 3 -21 -3 6 -10 -6 -14 -80 -26
-21 -4 -44 -13 -50 -20 -5 -8 -34 -17 -63 -20 -84 -9 -187 24 -256 82 -39 32
-48 35 -93 26z m522 -193 c3 -5 1 -10 -4 -10 -6 0 -11 5 -11 10 0 6 2 10 4 10
3 0 8 -4 11 -10z m495 -230 c0 -5 -4 -10 -10 -10 -5 0 -10 5 -10 10 0 6 5 10
10 10 6 0 10 -4 10 -10z"/>
<path d="M8571 3964 c0 -11 3 -14 6 -6 3 7 2 16 -1 19 -3 4 -6 -2 -5 -13z"/>
<path d="M8552 3950 c0 -14 2 -19 5 -12 2 6 2 18 0 25 -3 6 -5 1 -5 -13z"/>
<path d="M11004 3959 c-4 -8 1 -9 17 -5 21 6 22 6 6 -4 -10 -7 -30 -9 -44 -5
-30 7 -28 -11 3 -32 19 -12 24 -10 47 13 15 15 24 30 21 35 -7 13 -42 11 -50
-2z"/>
<path d="M8592 3940 c0 -14 2 -19 5 -12 2 6 2 18 0 25 -3 6 -5 1 -5 -13z"/>
<path d="M10111 3944 c0 -11 3 -14 6 -6 3 7 2 16 -1 19 -3 4 -6 -2 -5 -13z"/>
<path d="M10925 3950 c-3 -5 -1 -10 4 -10 6 0 11 5 11 10 0 6 -2 10 -4 10 -3
0 -8 -4 -11 -10z"/>
<path d="M3700 3935 c0 -9 6 -12 15 -9 8 4 12 10 9 15 -8 14 -24 10 -24 -6z"/>
<path d="M10081 3934 c0 -11 3 -14 6 -6 3 7 2 16 -1 19 -3 4 -6 -2 -5 -13z"/>
<path d="M10926 3907 c3 -10 9 -15 12 -12 3 3 0 11 -7 18 -10 9 -11 8 -5 -6z"/>
<path d="M10369 3863 c-13 -16 -12 -17 4 -4 16 13 21 21 13 21 -2 0 -10 -8
-17 -17z"/>
<path d="M10960 3864 c0 -8 5 -12 10 -9 6 4 8 11 5 16 -9 14 -15 11 -15 -7z"/>
<path d="M8550 3849 c-19 -11 -40 -17 -47 -15 -6 3 -13 -5 -15 -17 -2 -12 -8
-21 -13 -20 -6 1 -11 -12 -12 -28 -1 -16 -8 -42 -16 -57 -8 -15 -22 -45 -33
-67 -10 -22 -23 -43 -27 -46 -5 -3 -8 -8 -7 -10 1 -2 -2 -17 -6 -34 -9 -40
-32 -65 -61 -65 -12 0 -23 -5 -23 -10 0 -14 72 -1 82 14 4 6 15 31 24 56 57
152 99 243 121 258 32 22 79 62 73 60 -3 0 -21 -9 -40 -19z"/>
<path d="M11098 3841 c-2 -17 -1 -28 3 -26 10 7 18 55 9 55 -4 0 -10 -13 -12
-29z"/>
<path d="M9129 3833 l-24 -28 28 24 c25 23 32 31 24 31 -2 0 -14 -12 -28 -27z"/>
<path d="M9390 3845 c-7 -8 -8 -15 -2 -15 5 0 15 7 22 15 7 8 8 15 2 15 -5 0
-15 -7 -22 -15z"/>
<path d="M10544 3852 c-7 -4 -13 -18 -14 -32 -5 -56 0 -68 29 -78 22 -8 32
-20 40 -47 8 -31 6 -43 -21 -95 -31 -61 -31 -86 -2 -97 25 -9 44 18 80 113 24
65 30 92 22 101 -15 18 -38 16 -38 -4 0 -9 -2 -14 -5 -11 -3 2 -1 28 5 56 11
59 8 72 -20 90 -16 9 -26 10 -41 1 -15 -8 -19 -8 -15 0 8 12 -3 14 -20 3z m76
-27 c7 -9 9 -22 5 -32 -7 -17 -8 -16 -13 2 -2 11 -9 26 -14 33 -7 8 -7 12 0
12 5 0 15 -7 22 -15z"/>
<path d="M11170 3809 c-13 -28 -41 -72 -62 -99 -20 -26 -43 -68 -50 -95 -7
-26 -18 -50 -25 -52 -6 -3 -9 -11 -6 -19 3 -7 -7 -34 -21 -58 -29 -50 -33 -76
-12 -76 8 0 39 47 70 105 86 160 144 252 174 274 15 11 25 22 22 25 -3 3 -28
-14 -55 -37 l-50 -42 28 37 c16 20 34 39 40 41 8 3 5 12 -8 26 l-20 21 -25
-51z m-37 -124 c-3 -9 -8 -14 -10 -11 -3 3 -2 9 2 15 9 16 15 13 8 -4z"/>
<path d="M9149 3813 c-13 -16 -12 -17 4 -4 9 7 17 15 17 17 0 8 -8 3 -21 -13z"/>
<path d="M9328 3799 c-16 -11 -28 -28 -28 -36 0 -12 5 -10 23 6 12 12 31 28
42 36 15 11 16 14 5 14 -8 0 -27 -9 -42 -20z"/>
<path d="M5500 3804 c1 -29 21 -38 85 -37 41 0 62 -3 54 -8 -8 -5 -12 -9 -9
-9 87 -9 118 -7 113 6 -3 9 -19 14 -42 14 -20 0 -41 4 -46 9 -15 15 -88 29
-110 21 -11 -4 -26 -3 -32 2 -7 6 -13 7 -13 2z m113 -21 c-7 -2 -19 -2 -25 0
-7 3 -2 5 12 5 14 0 19 -2 13 -5z"/>
<path d="M9598 3797 c-8 -6 -18 -21 -22 -32 -6 -16 -2 -15 20 7 29 28 30 48 2
25z"/>
<path d="M9707 3802 c-15 -2 -33 -12 -39 -22 -8 -13 -16 -16 -24 -9 -8 6 -14
5 -18 -6 -3 -9 -2 -13 3 -10 5 3 12 1 15 -4 6 -9 -58 -72 -94 -91 -20 -11 -21
-10 -10 10 6 12 10 24 8 26 -3 2 -31 -37 -63 -86 -38 -60 -66 -92 -81 -96 -20
-5 -36 -29 -39 -55 -1 -13 -78 -139 -91 -150 -8 -7 -17 -9 -21 -5 -3 3 -1 6 5
6 7 0 12 5 12 11 0 5 -4 7 -10 4 -17 -10 -11 24 8 53 10 15 33 48 50 74 18 25
32 49 32 53 0 12 -64 85 -75 85 -7 0 -9 -13 -7 -35 3 -23 0 -35 -8 -35 -8 0
-11 -9 -8 -25 3 -13 1 -22 -3 -19 -5 3 -9 1 -9 -5 0 -5 6 -11 13 -14 9 -3 8
-9 -4 -23 -24 -28 -71 -135 -107 -244 -30 -87 -31 -100 -22 -150 6 -30 15 -56
20 -58 11 -4 -90 -126 -134 -162 -42 -33 -136 -134 -131 -139 4 -4 26 15 91
77 18 17 38 32 44 32 6 0 8 5 4 12 -4 7 -3 8 5 4 14 -9 43 12 35 25 -3 5 3 6
12 2 13 -5 16 -3 11 10 -4 10 -2 16 6 14 7 -1 11 4 9 11 -1 8 2 11 8 7 7 -4
14 2 17 14 3 11 9 18 14 15 17 -10 80 62 99 114 18 47 19 53 4 59 -24 9 -11
54 41 137 39 64 49 73 90 85 48 14 52 24 36 96 -5 22 0 41 19 75 44 79 105
169 113 170 5 0 5 -6 2 -12 -4 -7 3 -1 15 15 24 31 53 37 43 10 -5 -15 -3 -16
8 -5 20 19 34 14 16 -6 -13 -14 -14 -21 -5 -30 7 -7 18 -12 26 -12 12 0 12 -3
1 -17 -12 -16 -11 -16 8 0 24 21 23 48 -2 73 -14 14 -14 19 -2 33 8 9 17 32
21 52 6 35 8 36 64 45 41 7 50 11 32 14 -14 3 -38 4 -53 2z m-319 -445 c2 -12
-1 -15 -12 -11 -19 7 -22 38 -3 32 6 -3 13 -12 15 -21z"/>
<path d="M4780 3782 c8 -4 15 -13 16 -19 1 -7 2 -22 3 -33 1 -18 8 -20 78 -20
70 0 75 1 57 14 -11 8 -27 14 -35 14 -57 -4 -78 3 -81 25 -2 15 -11 23 -28 24
-16 2 -20 0 -10 -5z"/>
<path d="M8796 3775 c-10 -8 -24 -16 -30 -18 -6 -2 -8 -7 -5 -11 3 -3 21 5 39
19 19 14 30 25 24 25 -5 0 -18 -7 -28 -15z"/>
<path d="M9797 3774 c5 -11 9 -33 8 -50 -2 -24 1 -31 13 -30 18 3 35 43 22 51
-6 4 -10 3 -11 -2 -1 -4 -4 3 -8 16 -4 14 -12 26 -20 29 -10 3 -11 0 -4 -14z"/>
<path d="M10490 3764 c0 -28 15 -25 23 6 3 13 0 20 -9 20 -8 0 -14 -10 -14
-26z"/>
<path d="M10279 3770 c-14 -4 -37 -15 -51 -24 -13 -9 -28 -13 -33 -9 -4 5 -5
3 -1 -4 8 -14 -52 -125 -64 -118 -5 3 -12 0 -16 -6 -4 -8 -3 -9 4 -5 7 4 12 2
12 -3 0 -6 15 -11 33 -11 30 0 34 3 46 46 10 33 21 48 40 55 14 6 39 17 55 25
16 8 40 14 53 14 28 0 30 16 3 30 -17 9 -19 8 -13 -7 6 -16 5 -16 -10 -4 -11
9 -17 10 -17 2 0 -6 -5 -11 -11 -11 -6 0 -8 9 -4 20 3 11 5 20 3 19 -2 0 -15
-4 -29 -9z"/>
<path d="M10395 3770 c-3 -5 3 -10 14 -10 11 0 23 5 26 10 3 6 -3 10 -14 10
-11 0 -23 -4 -26 -10z"/>
<path d="M5050 3754 c0 -21 26 -149 56 -271 13 -53 22 -73 37 -77 16 -4 18 -1
12 17 -4 12 -10 43 -15 69 -10 57 -27 91 -42 82 -6 -4 -8 1 -3 16 4 12 -1 53
-11 93 -18 74 -34 107 -34 71z"/>
<path d="M11354 3738 l-29 -33 33 29 c30 28 37 36 29 36 -2 0 -16 -15 -33 -32z"/>
<path d="M8975 3704 c-16 -14 -41 -31 -55 -37 -25 -11 -25 -11 -2 -14 15 -3
36 7 63 31 23 19 53 37 68 39 21 3 19 4 -9 5 -25 2 -44 -6 -65 -24z"/>
<path d="M9690 3719 c0 -12 23 -16 55 -8 36 8 33 10 -17 13 -21 2 -38 -1 -38
-5z"/>
<path d="M5025 3710 c3 -5 8 -10 11 -10 2 0 4 5 4 10 0 6 -5 10 -11 10 -5 0
-7 -4 -4 -10z"/>
<path d="M10749 3698 c-19 -8 -34 -31 -61 -94 l-36 -84 38 0 c32 0 39 4 48 28
5 15 21 57 35 95 27 70 25 74 -24 55z"/>
<path d="M11294 3688 l-19 -23 23 19 c21 18 27 26 19 26 -2 0 -12 -10 -23 -22z"/>
<path d="M4720 3670 c0 -5 5 -10 10 -10 6 0 10 5 10 10 0 6 -4 10 -10 10 -5 0
-10 -4 -10 -10z"/>
<path d="M4990 3666 c0 -2 11 -6 25 -8 14 -3 25 -1 25 3 0 5 -11 9 -25 9 -14
0 -25 -2 -25 -4z"/>
<path d="M9726 3658 c5 -7 -2 -9 -21 -4 -25 6 -27 5 -16 -8 16 -20 32 -20 56
-3 17 13 17 14 -4 20 -13 3 -19 1 -15 -5z"/>
<path d="M4778 3653 c7 -3 16 -2 19 1 4 3 -2 6 -13 5 -11 0 -14 -3 -6 -6z"/>
<path d="M4956 3633 c-6 -14 -5 -15 5 -6 7 7 10 15 7 18 -3 3 -9 -2 -12 -12z"/>
<path d="M9130 3631 c0 -4 -12 -21 -27 -37 -29 -31 -93 -120 -93 -129 0 -4 5
-3 11 1 7 4 7 -1 -1 -16 -10 -19 -10 -22 2 -18 9 4 14 -1 14 -13 0 -17 -2 -17
-24 -3 -22 14 -25 14 -43 -2 -19 -17 -21 -16 -53 15 -32 31 -35 32 -44 15 -5
-11 -7 -25 -5 -31 3 -7 0 -13 -5 -13 -11 0 -138 -251 -148 -292 -7 -30 12 -98
27 -98 6 0 7 5 3 12 -5 8 -2 9 10 5 11 -5 15 -3 10 5 -4 6 -6 29 -6 51 1 22
-3 46 -9 54 -23 27 0 23 74 -13 69 -33 80 -36 122 -28 45 9 48 11 66 59 10 28
19 53 19 57 0 3 -18 9 -40 13 -22 4 -38 11 -35 15 3 5 -3 11 -14 15 -13 4 -17
12 -14 25 7 25 23 26 30 1 6 -24 89 -35 98 -12 4 9 -1 12 -15 8 -11 -3 -20 -1
-20 4 0 5 8 9 18 9 26 0 34 11 21 27 -7 8 -8 13 -1 13 25 0 42 106 20 128 -8
8 -4 22 18 54 16 24 35 47 41 51 7 4 13 15 13 22 0 8 5 15 10 15 16 0 11 27
-6 34 -21 8 -24 8 -24 -3z m-149 -324 c-16 -16 -26 0 -10 19 9 11 15 12 17 4
2 -6 -1 -17 -7 -23z m39 -4 c0 -5 -5 -15 -10 -23 -7 -12 -12 -12 -22 -2 -10
10 -10 15 2 22 18 12 30 13 30 3z m-90 -88 c0 -19 -13 -25 -30 -15 -11 7 -11
11 -1 24 15 17 31 13 31 -9z m30 -30 c0 -9 -6 -12 -15 -9 -8 4 -15 10 -15 15
0 5 7 9 15 9 8 0 15 -7 15 -15z m-28 -24 c13 -5 32 -12 42 -16 17 -5 18 -7 5
-21 -13 -12 -20 -12 -55 -1 -21 8 -40 21 -42 30 -4 19 15 22 50 8z"/>
<path d="M8841 3611 c-6 -10 -21 -25 -35 -34 -23 -15 -24 -15 -19 6 2 12 -11
-7 -29 -43 -19 -36 -43 -78 -53 -94 -11 -16 -21 -38 -22 -49 -2 -11 -17 -44
-34 -74 -24 -41 -27 -53 -15 -53 8 0 21 10 27 23 7 12 27 45 45 72 18 28 35
64 39 80 17 74 27 96 39 85 10 -7 22 3 49 45 19 30 32 55 27 55 -5 0 -14 -8
-19 -19z"/>
<path d="M9385 3610 c3 -5 11 -10 16 -10 6 0 7 5 4 10 -3 6 -11 10 -16 10 -6
0 -7 -4 -4 -10z"/>
<path d="M9790 3610 c-23 -14 -9 -17 55 -10 33 4 49 8 35 9 -14 2 -36 4 -50 7
-14 2 -32 0 -40 -6z"/>
<path d="M8656 3570 c-17 -26 -34 -40 -49 -40 -20 -1 -20 -2 -4 -11 23 -14 22
-27 -13 -95 -34 -68 -33 -64 -20 -64 5 0 16 13 25 30 8 16 19 29 23 29 4 -1
14 -1 22 0 12 1 11 5 -5 17 -20 16 -19 16 4 9 17 -5 22 -4 18 6 -2 8 -10 13
-16 12 -6 -2 -11 -2 -11 0 0 10 44 115 52 125 6 7 9 15 6 17 -3 3 -17 -13 -32
-35z"/>
<path d="M4180 3590 c0 -5 5 -10 11 -10 5 0 7 5 4 10 -3 6 -8 10 -11 10 -2 0
-4 -4 -4 -10z"/>
<path d="M9715 3589 c-10 -15 3 -25 16 -12 7 7 7 13 1 17 -6 3 -14 1 -17 -5z"/>
<path d="M9960 3562 c0 -14 -80 -54 -96 -48 -8 3 -13 2 -9 -3 3 -5 -2 -16 -10
-24 -17 -18 -20 -31 -5 -22 11 7 13 -18 4 -64 l-6 -31 -28 30 c-20 22 -34 28
-56 26 -16 -2 -37 -4 -46 -5 -10 0 -18 -8 -18 -16 0 -8 -4 -15 -10 -15 -5 0
-10 -5 -10 -11 0 -8 5 -8 15 1 21 17 100 7 126 -16 19 -17 20 -16 50 12 52 49
115 128 97 121 -23 -8 -32 8 -12 24 12 10 17 10 23 0 6 -10 10 -9 15 4 9 25 8
32 -9 39 -8 3 -15 2 -15 -2z"/>
<path d="M9516 3541 c-2 -3 -13 -41 -25 -85 -20 -72 -20 -81 -6 -102 27 -42
41 -29 65 57 17 66 19 86 10 108 -10 25 -35 37 -44 22z"/>
<path d="M10895 3510 c-3 -5 -13 -7 -23 -4 -12 4 -14 3 -4 -3 28 -21 -14 -33
-107 -31 -50 0 -94 -2 -98 -5 -3 -4 9 -7 27 -7 19 0 71 -5 117 -12 76 -11 84
-10 102 7 20 17 20 19 3 31 -16 13 -16 13 1 14 10 0 15 5 12 10 -8 13 -22 13
-30 0z"/>
<path d="M10105 3490 c-3 -5 -1 -10 4 -10 6 0 11 5 11 10 0 6 -2 10 -4 10 -3
0 -8 -4 -11 -10z"/>
<path d="M10910 3413 l-55 -57 50 43 c43 37 73 71 63 71 -2 0 -28 -26 -58 -57z"/>
<path d="M9641 3423 c-28 -23 -47 -99 -30 -120 11 -12 14 -11 25 9 8 13 13 31
14 41 0 10 12 34 26 53 25 32 25 34 6 34 -11 0 -30 -8 -41 -17z"/>
<path d="M8381 3381 c-1 -47 1 -52 14 -41 10 8 12 17 6 24 -5 6 -11 25 -14 41
-2 19 -5 10 -6 -24z"/>
<path d="M8490 3394 c-30 -13 -37 -22 -47 -62 -6 -26 -15 -56 -19 -66 -5 -14
-4 -17 5 -11 8 4 17 2 22 -6 12 -20 25 19 13 40 -13 20 -6 51 10 51 17 0 74
29 82 42 3 5 1 15 -5 21 -8 8 -11 6 -11 -6 0 -9 -5 -17 -11 -17 -6 0 -9 7 -5
15 3 8 4 15 3 14 -1 -1 -18 -7 -37 -15z"/>
<path d="M8745 3400 c3 -5 11 -10 16 -10 6 0 7 5 4 10 -3 6 -11 10 -16 10 -6
0 -7 -4 -4 -10z"/>
<path d="M10980 3392 c0 -5 -9 -18 -21 -31 -11 -12 -18 -28 -16 -36 3 -7 -1
-16 -10 -19 -26 -10 -53 4 -53 27 0 18 -2 19 -10 7 -9 -13 -10 -13 -10 0 -1
13 -2 13 -13 -1 -17 -22 -51 -34 -44 -15 4 11 1 13 -11 9 -15 -6 -15 -5 -3 11
13 15 13 19 0 27 -8 5 -20 7 -27 4 -8 -3 -19 -5 -25 -5 -6 0 -2 -7 9 -15 18
-14 18 -14 -3 -8 -16 4 -23 1 -23 -9 0 -8 -11 -36 -24 -64 -19 -40 -46 -109
-46 -119 0 -1 11 0 25 3 15 2 46 28 73 58 26 30 50 54 55 54 15 0 6 -20 -24
-55 -17 -19 -27 -35 -22 -35 5 0 46 16 90 35 45 19 87 35 95 35 7 0 15 11 16
24 1 14 10 48 21 75 10 28 15 51 10 51 -5 0 -9 -4 -9 -8z"/>
<path d="M9982 3325 c-36 -74 -40 -90 -16 -77 21 12 67 123 56 134 -4 4 -22
-21 -40 -57z"/>
<path d="M1436 3371 c-4 -7 -5 -15 -2 -18 9 -9 19 4 14 18 -4 11 -6 11 -12 0z"/>
<path d="M5140 3335 c0 -8 4 -15 10 -15 5 0 7 7 4 15 -4 8 -8 15 -10 15 -2 0
-4 -7 -4 -15z"/>
<path d="M10405 3340 c-3 -6 1 -7 9 -4 18 7 21 14 7 14 -6 0 -13 -4 -16 -10z"/>
<path d="M10439 3322 c12 -8 11 -11 -3 -15 -15 -4 -15 -5 1 -3 19 1 21 19 1
24 -10 3 -10 1 1 -6z"/>
<path d="M10680 3308 c-12 -22 -12 -22 6 -6 10 10 15 20 12 24 -4 3 -12 -5
-18 -18z"/>
<path d="M8545 3300 c-10 -11 -13 -20 -7 -20 6 0 16 9 22 20 6 11 9 20 7 20
-2 0 -12 -9 -22 -20z"/>
<path d="M9510 3301 c0 -4 9 -20 20 -34 26 -32 25 -77 -1 -128 -19 -37 -22
-40 -52 -34 l-32 6 27 -18 c21 -13 26 -23 22 -38 -12 -35 -56 -86 -93 -105
-47 -25 -101 -76 -101 -94 0 -8 -4 -18 -10 -21 -5 -3 -39 -46 -76 -95 -36 -50
-70 -90 -75 -90 -5 0 -8 -17 -8 -37 1 -22 3 -30 6 -18 8 31 76 126 122 170 22
22 41 46 41 53 0 6 3 11 8 10 4 -2 18 7 32 20 13 12 37 22 54 23 52 1 89 31
151 125 33 49 75 109 93 133 31 43 32 45 15 64 -18 19 -18 18 -21 -17 -4 -43
-22 -49 -22 -7 0 16 -3 37 -7 47 -4 12 -3 15 5 10 7 -4 12 -3 12 3 0 5 -10 11
-22 13 -15 2 -23 10 -23 23 0 12 -11 25 -29 33 -34 14 -36 15 -36 3z"/>
<path d="M10059 3299 c-6 -3 -5 -10 3 -17 10 -8 20 -6 38 9 l25 19 -28 -2
c-15 -2 -32 -5 -38 -9z"/>
<path d="M5151 3290 c1 -8 5 -26 9 -40 l8 -25 1 25 c0 14 -4 32 -9 40 -9 13
-10 13 -9 0z"/>
<path d="M9680 3290 c0 -5 11 -10 25 -10 14 0 25 5 25 10 0 6 -11 10 -25 10
-14 0 -25 -4 -25 -10z"/>
<path d="M9903 3265 c-18 -19 -28 -37 -23 -40 14 -9 28 2 46 37 22 42 14 42
-23 3z"/>
<path d="M5592 3250 c0 -14 2 -19 5 -12 2 6 2 18 0 25 -3 6 -5 1 -5 -13z"/>
<path d="M9470 3258 c3 -1 18 -14 35 -28 16 -14 24 -18 18 -10 -6 8 -11 20
-10 25 1 6 -9 12 -23 13 -14 2 -23 2 -20 0z"/>
<path d="M9289 3207 c-23 -27 -29 -67 -10 -67 11 0 51 89 43 94 -4 2 -19 -10
-33 -27z"/>
<path d="M9677 3219 c7 -7 15 -10 18 -7 3 3 -2 9 -12 12 -14 6 -15 5 -6 -5z"/>
<path d="M10160 3214 c0 -9 41 -44 50 -44 4 0 13 6 19 14 9 11 5 16 -20 25
-36 13 -49 14 -49 5z"/>
<path d="M7960 3160 c13 -6 32 -18 42 -27 9 -8 22 -13 29 -11 16 5 -32 36 -67
43 -28 5 -28 5 -4 -5z"/>
<path d="M6895 3150 c3 -5 8 -10 11 -10 2 0 4 5 4 10 0 6 -5 10 -11 10 -5 0
-7 -4 -4 -10z"/>
<path d="M7805 3150 c3 -5 11 -10 16 -10 6 0 7 5 4 10 -3 6 -11 10 -16 10 -6
0 -7 -4 -4 -10z"/>
<path d="M8460 3125 c-19 -14 -40 -25 -47 -25 -7 0 -21 -4 -31 -10 -9 -5 -30
-15 -46 -20 -40 -15 -27 -23 15 -9 69 23 126 51 137 70 15 24 15 23 -28 -6z"/>
<path d="M6835 3130 c-4 -6 -17 -7 -31 -4 -18 5 -25 1 -30 -12 -4 -11 -16 -29
-27 -41 -29 -32 -14 -29 46 11 29 18 59 36 66 38 12 4 12 6 -2 11 -9 3 -19 2
-22 -3z"/>
<path d="M7936 3131 c-3 -4 6 -13 19 -19 14 -7 25 -16 25 -22 0 -7 7 -7 21 1
18 9 19 13 8 24 -18 16 -66 27 -73 16z"/>
<path d="M9370 3130 c20 -13 43 -13 35 0 -3 6 -16 10 -28 10 -18 0 -19 -2 -7
-10z"/>
<path d="M6665 3111 c-16 -10 -43 -33 -60 -52 -33 -36 -27 -33 53 29 56 44 59
56 7 23z"/>
<path d="M6703 3099 c-18 -12 -33 -23 -33 -25 0 -6 74 26 85 37 17 17 -19 9
-52 -12z"/>
<path d="M6903 3113 c9 -2 25 -2 35 0 9 3 1 5 -18 5 -19 0 -27 -2 -17 -5z"/>
<path d="M8539 3099 l-24 -20 24 12 c14 6 36 15 50 20 l26 7 -26 1 c-15 1 -37
-8 -50 -20z"/>
<path d="M8489 3067 c-22 -18 -53 -57 -46 -57 11 0 71 59 66 65 -3 2 -12 -1
-20 -8z"/>
<path d="M8578 3064 c-16 -8 -28 -20 -28 -26 0 -6 7 -4 18 5 9 9 29 20 42 26
14 5 18 10 10 10 -8 0 -27 -7 -42 -15z"/>
<path d="M9332 3039 c2 -7 19 -22 36 -32 26 -15 35 -16 54 -6 22 12 22 12 3
20 -28 11 -37 11 -30 -1 12 -19 -21 -10 -45 12 -13 12 -21 15 -18 7z"/>
<path d="M9408 3043 c7 -3 16 -2 19 1 4 3 -2 6 -13 5 -11 0 -14 -3 -6 -6z"/>
<path d="M7085 3020 c-3 -5 -1 -10 4 -10 6 0 11 5 11 10 0 6 -2 10 -4 10 -3 0
-8 -4 -11 -10z"/>
<path d="M8520 3010 c-6 -11 -8 -20 -6 -20 3 0 10 9 16 20 6 11 8 20 6 20 -3
0 -10 -9 -16 -20z"/>
<path d="M8003 3000 c28 -23 51 -26 44 -7 -2 6 -11 11 -20 9 -8 -1 -18 2 -22
8 -3 5 -11 10 -17 10 -6 0 1 -9 15 -20z"/>
<path d="M8975 3011 c-6 -5 -26 -14 -46 -20 -19 -6 -46 -25 -60 -42 -13 -16
-39 -44 -58 -62 -18 -18 -49 -46 -67 -64 -20 -19 -40 -30 -49 -27 -8 4 -15 2
-15 -3 0 -6 -11 -15 -25 -21 -15 -7 -23 -17 -19 -26 15 -38 -44 -76 -63 -41
-10 16 -79 29 -88 15 -3 -4 -14 -6 -25 -3 -11 3 -20 0 -20 -6 0 -6 -7 -11 -15
-11 -8 0 -15 -9 -15 -20 0 -24 -19 -26 -46 -5 -28 21 -32 19 -44 -27 -25 -95
-58 -190 -98 -278 -13 -30 -30 -71 -37 -90 -7 -19 -18 -48 -24 -63 l-11 -28
-41 33 c-23 18 -52 43 -64 56 -12 12 -26 22 -31 22 -5 0 -18 10 -28 21 -26 30
-45 10 -29 -31 6 -17 8 -30 4 -30 -10 0 -91 -118 -91 -133 -1 -33 -92 -86
-149 -88 -62 -1 -65 -11 -14 -60 48 -45 149 -130 169 -142 7 -4 22 14 38 43
15 27 32 55 39 62 7 7 25 31 40 53 61 89 78 108 102 121 40 20 37 2 -10 -67
-24 -35 -55 -80 -69 -100 -13 -20 -30 -42 -38 -50 -8 -8 -27 -31 -42 -52 -29
-38 -29 -38 -10 -58 19 -18 23 -18 61 -5 22 8 105 22 184 31 153 17 260 32
265 38 2 1 10 45 18 97 24 147 68 320 81 320 7 0 24 -9 39 -21 20 -16 25 -26
20 -45 -5 -21 -3 -24 21 -24 23 0 26 -2 15 -15 -11 -13 -9 -15 11 -12 19 3 25
12 30 42 3 20 11 40 17 44 8 5 7 15 -3 35 -21 41 -19 89 5 111 20 18 21 18 48
-2 15 -11 31 -33 37 -49 14 -40 27 -47 46 -22 10 13 21 18 29 13 8 -5 24 5 44
28 27 31 40 37 86 42 77 8 90 8 123 -6 23 -10 28 -17 24 -36 -3 -18 -1 -21 8
-13 7 6 13 33 13 61 1 111 -120 218 -270 236 -37 5 -48 19 -29 38 20 20 81
147 69 142 -7 -2 -12 -10 -10 -16 1 -6 -10 -11 -24 -11 -37 0 -57 -14 -89 -62
-44 -66 -77 -98 -99 -98 -12 0 -16 4 -11 8 21 15 117 171 111 181 -7 11 76
101 92 101 5 0 25 15 44 33 20 17 46 40 59 49 17 12 20 17 9 18 -9 0 -20 -4
-25 -9z m-135 -331 c-8 -5 -22 -10 -30 -10 -13 0 -13 1 0 10 8 5 22 10 30 10
13 0 13 -1 0 -10z m-200 -29 c0 -4 -5 -22 -11 -40 -8 -23 -8 -35 0 -45 6 -7
10 -38 8 -69 -2 -52 -3 -55 -27 -53 -26 2 -27 6 -14 59 6 26 -8 38 -21 17 -3
-5 -2 -10 4 -10 6 0 8 -7 4 -16 -5 -15 -7 -15 -15 0 -12 21 -52 22 -45 1 6
-15 -7 -28 -33 -32 -8 -1 -32 -20 -52 -41 -20 -22 -39 -37 -42 -34 -3 3 -15
-3 -26 -13 -17 -15 -21 -16 -34 -2 -9 8 -21 17 -27 19 -7 2 -9 12 -5 26 4 12
12 20 17 17 5 -4 9 5 9 18 0 31 20 87 30 87 5 0 12 -4 15 -10 12 -20 24 -9 31
27 6 30 9 34 14 18 6 -18 7 -18 12 2 4 14 -1 29 -14 42 -19 21 -19 21 2 21 11
0 20 -5 20 -11 0 -8 4 -8 14 0 11 10 20 10 38 0 13 -7 25 -15 28 -20 3 -4 16
-10 30 -13 19 -5 29 0 44 21 13 17 14 24 5 19 -8 -4 -5 0 5 8 22 18 36 21 36
7z m127 -27 c-3 -3 -12 -4 -19 -1 -8 3 -5 6 6 6 11 1 17 -2 13 -5z m188 -142
c3 -7 -8 -4 -25 8 -17 12 -30 23 -30 25 0 9 50 -22 55 -33z"/>
<path d="M8603 2558 c-2 -16 1 -18 10 -9 7 7 8 14 1 21 -6 6 -10 2 -11 -12z"/>
<path d="M7135 2950 c-11 -5 -16 -9 -12 -9 4 -1 -5 -13 -20 -27 l-28 -27 40 6
c22 4 46 7 53 7 6 0 12 7 12 15 0 9 -6 12 -15 9 -8 -4 -15 -1 -15 5 0 6 5 11
10 11 6 0 10 5 10 10 0 12 -8 12 -35 0z"/>
<path d="M8934 2925 c-18 -20 -19 -25 -7 -29 20 -8 30 -1 35 29 6 30 0 30 -28
0z"/>
<path d="M6480 2929 c0 -5 5 -7 10 -4 6 3 10 8 10 11 0 2 -4 4 -10 4 -5 0 -10
-5 -10 -11z"/>
<path d="M7030 2915 c-13 -14 -21 -27 -18 -30 3 -3 11 1 18 10 7 8 18 15 24
15 7 0 21 7 32 15 18 14 18 14 -7 15 -15 0 -35 -11 -49 -25z"/>
<path d="M9328 2933 c7 -3 16 -2 19 1 4 3 -2 6 -13 5 -11 0 -14 -3 -6 -6z"/>
<path d="M7820 2836 c-15 -39 -12 -46 6 -13 9 16 13 31 10 34 -3 3 -10 -6 -16
-21z"/>
<path d="M7250 2771 c-8 -6 -18 -7 -22 -4 -13 7 -108 -17 -108 -28 0 -5 -8 -9
-17 -9 -15 0 -15 -2 -4 -9 25 -16 109 6 151 39 26 20 26 27 0 11z"/>
<path d="M7461 2748 c0 -7 4 -22 9 -33 8 -18 9 -17 9 7 1 15 -3 30 -9 33 -5 3
-10 0 -9 -7z"/>
<path d="M7435 2659 c-4 -6 -4 -13 -1 -16 3 -4 6 -1 6 6 0 7 5 9 12 5 7 -4 8
-3 4 4 -9 15 -13 15 -21 1z"/>
<path d="M7385 2591 c-3 -5 0 -13 6 -17 8 -5 9 -3 4 6 -5 9 -4 11 3 6 7 -4 12
-11 12 -15 0 -12 -116 -45 -129 -37 -6 4 -11 2 -11 -3 0 -6 -9 -11 -20 -11
-11 0 -20 -4 -20 -10 0 -5 -7 -10 -17 -10 -9 0 -14 -3 -10 -6 3 -4 14 -3 24 1
10 5 28 9 41 10 l23 1 -23 -18 c-13 -10 -27 -18 -33 -18 -5 0 0 -7 12 -15 14
-10 32 -13 47 -9 l25 6 -15 -46 c-10 -29 -22 -46 -32 -46 -12 0 -13 -3 -5 -11
9 -9 21 -4 50 18 21 16 46 32 55 36 9 3 25 19 35 34 10 15 20 30 24 33 11 9
18 50 7 44 -5 -3 -9 2 -7 12 6 48 -27 95 -46 65z m-80 -111 c-3 -5 -11 -10
-16 -10 -6 0 -7 5 -4 10 3 6 11 10 16 10 6 0 7 -4 4 -10z m52 -44 c-5 -16 -27
-19 -27 -3 0 7 7 14 15 14 9 0 14 -5 12 -11z"/>
<path d="M7710 2590 c0 -5 5 -10 11 -10 5 0 7 5 4 10 -3 6 -8 10 -11 10 -2 0
-4 -4 -4 -10z"/>
<path d="M7315 2555 c-16 -8 -23 -14 -15 -14 8 0 26 6 40 14 32 18 15 18 -25
0z"/>
<path d="M8245 2536 c-11 -8 -31 -34 -43 -59 -22 -45 -65 -95 -77 -89 -8 4
-30 -19 -38 -41 -10 -27 34 -18 48 9 6 11 16 19 23 16 7 -2 12 6 12 22 0 15 6
29 14 32 8 3 17 16 20 30 4 13 12 24 18 24 7 0 23 12 35 27 35 40 28 57 -12
29z"/>
<path d="M7120 2398 c0 -11 14 -15 73 -21 30 -3 45 -1 40 4 -13 13 -113 28
-113 17z"/>
<path d="M6910 2374 c0 -8 5 -12 10 -9 6 3 10 10 10 16 0 5 -4 9 -10 9 -5 0
-10 -7 -10 -16z"/>
<path d="M8725 2360 c3 -5 8 -10 11 -10 2 0 4 5 4 10 0 6 -5 10 -11 10 -5 0
-7 -4 -4 -10z"/>
<path d="M7073 2343 c-7 -2 -13 -9 -13 -14 0 -4 7 -6 15 -3 9 4 15 0 15 -10 0
-19 36 -40 56 -32 8 3 14 1 14 -4 0 -6 11 -10 24 -10 41 0 42 41 2 62 l-21 11
20 -23 c19 -22 17 -21 -20 3 -38 26 -65 32 -92 20z"/>
<path d="M8725 2330 c3 -5 8 -10 11 -10 2 0 4 5 4 10 0 6 -5 10 -11 10 -5 0
-7 -4 -4 -10z"/>
<path d="M3935 2320 c-3 -5 -1 -10 4 -10 6 0 11 5 11 10 0 6 -2 10 -4 10 -3 0
-8 -4 -11 -10z"/>
<path d="M8994 2301 c5 -7 -4 -11 -23 -11 -17 0 -31 -5 -31 -11 0 -5 5 -7 10
-4 20 12 30 -6 13 -23 -16 -16 -15 -17 2 -21 10 -2 23 3 29 11 6 8 19 17 29
21 25 10 17 41 -12 45 -15 2 -21 0 -17 -7z"/>
<path d="M3898 2283 c7 -3 16 -2 19 1 4 3 -2 6 -13 5 -11 0 -14 -3 -6 -6z"/>
<path d="M9087 2279 c-24 -14 -40 -58 -27 -74 5 -6 8 -15 5 -19 -3 -3 -1 -3 4
1 5 5 11 17 13 28 2 14 11 20 28 20 27 0 50 11 50 24 0 4 -11 13 -25 19 -30
14 -26 14 -48 1z"/>
<path d="M7818 2263 c-8 -10 -18 -25 -22 -33 -3 -8 -15 -30 -26 -48 -12 -20
-15 -32 -8 -30 11 4 85 128 75 128 -2 0 -11 -8 -19 -17z"/>
<path d="M3727 2163 c-7 -36 -2 -41 13 -13 8 14 8 26 2 32 -6 6 -11 -1 -15
-19z"/>
<path d="M6653 2160 l-33 -20 35 -35 c20 -19 43 -35 51 -35 8 0 13 -4 9 -9 -3
-5 -1 -12 5 -16 5 -3 10 1 10 10 0 17 16 15 65 -4 11 -5 32 -13 46 -19 15 -6
47 -14 73 -17 36 -6 44 -10 36 -20 -13 -16 -68 -27 -83 -18 -16 10 -47 11 -47
2 0 -11 98 -32 116 -25 9 4 13 2 8 -5 -4 -7 -1 -10 7 -7 8 3 12 14 11 24 -2
10 -1 16 3 12 10 -10 67 21 60 32 -3 5 -27 12 -53 15 -26 3 -60 8 -77 10 -41
6 -195 73 -219 95 -18 18 -18 18 10 34 16 8 22 15 14 16 -8 0 -30 -9 -47 -20z"/>
<path d="M6817 2159 c7 -7 15 -10 18 -7 3 3 -2 9 -12 12 -14 6 -15 5 -6 -5z"/>
<path d="M6872 2140 c15 -21 30 -30 47 -29 16 1 19 3 9 6 -9 2 -24 15 -32 29
-9 13 -23 24 -32 24 -11 0 -10 -6 8 -30z"/>
<path d="M8914 2160 c-21 -8 -44 -33 -27 -28 4 1 23 -7 41 -19 29 -18 31 -22
18 -35 -13 -13 -11 -15 14 -16 32 -1 55 21 65 60 5 20 2 29 -13 37 -23 12 -43
15 -25 3 24 -15 -3 -35 -36 -27 -26 6 -30 9 -20 21 13 16 12 16 -17 4z"/>
<path d="M8746 2142 c6 -4 17 -17 23 -30 11 -20 10 -26 -6 -37 -17 -13 -17
-14 5 -22 l23 -9 -21 -22 c-23 -25 -11 -29 34 -12 14 5 26 6 26 1 0 -5 11 -4
24 2 l24 11 -32 22 c-17 12 -35 19 -40 16 -5 -3 -6 -1 -3 5 8 12 -40 83 -56
83 -8 0 -9 -3 -1 -8z"/>
<path d="M8630 2126 c0 -9 4 -16 9 -16 5 0 12 -8 14 -17 4 -14 5 -14 6 3 0 12
-6 27 -14 34 -12 10 -15 10 -15 -4z"/>
<path d="M12050 2128 l-25 -11 23 -5 c30 -5 55 5 47 18 -8 12 -13 12 -45 -2z"/>
<path d="M6980 2120 c0 -5 5 -10 10 -10 6 0 10 5 10 10 0 6 -4 10 -10 10 -5 0
-10 -4 -10 -10z"/>
<path d="M7050 2098 c1 -22 30 -93 38 -96 17 -5 15 14 -8 58 -17 33 -31 50
-30 38z"/>
<path d="M8645 2060 c3 -5 8 -10 11 -10 2 0 4 5 4 10 0 6 -5 10 -11 10 -5 0
-7 -4 -4 -10z"/>
<path d="M6740 2030 c0 -9 51 -40 65 -40 16 0 -3 24 -20 26 -11 2 -21 8 -23
13 -5 14 -22 14 -22 1z"/>
<path d="M9900 1992 c-61 -22 -69 -27 -45 -29 51 -5 138 20 141 40 3 22 -5 21
-96 -11z"/>
<path d="M8618 1970 c-9 -22 -15 -40 -13 -40 2 0 18 18 35 40 27 34 29 40 13
40 -12 0 -24 -14 -35 -40z"/>
<path d="M11596 1989 c4 -8 -13 -9 -60 -4 -36 4 -66 3 -66 -1 1 -34 35 -42
137 -33 l41 3 -24 23 c-27 25 -40 30 -28 12z"/>
<path d="M10987 1958 c-7 -4 -26 -8 -44 -8 -17 0 -38 -6 -46 -14 -8 -8 -45
-18 -82 -23 -58 -7 -69 -11 -76 -32 -9 -22 -7 -23 18 -16 16 4 75 11 133 16
127 10 173 18 182 32 6 10 30 11 109 6 49 -4 103 19 88 37 -8 10 -15 11 -30 1
-15 -9 -23 -9 -40 1 -22 14 -190 14 -212 0z m86 -15 c-7 -2 -21 -2 -30 0 -10
3 -4 5 12 5 17 0 24 -2 18 -5z"/>
<path d="M11353 1923 c9 -2 23 -2 30 0 6 3 -1 5 -18 5 -16 0 -22 -2 -12 -5z"/>
<path d="M9898 1830 c-114 -15 -139 -23 -124 -37 12 -12 346 -17 346 -4 0 6
-16 11 -35 11 -24 0 -35 5 -35 15 0 28 -34 31 -152 15z"/>
<path d="M2020 1702 c0 -12 34 -30 79 -42 44 -12 50 -20 26 -40 -20 -16 -78
-15 -140 4 -30 10 -51 12 -53 6 -2 -6 -15 -10 -29 -10 -14 0 -38 -8 -53 -17
-23 -13 -37 -15 -72 -7 -90 20 -228 -17 -228 -62 0 -8 -7 -14 -15 -14 -18 0
-20 -19 -2 -24 6 -3 32 -7 57 -10 39 -5 42 -4 20 6 -19 9 -21 12 -9 15 21 5
32 45 16 55 -26 17 53 7 94 -12 46 -20 118 -29 89 -10 -11 7 -6 10 21 10 19 0
39 4 45 9 5 4 32 5 59 2 41 -6 46 -8 28 -15 -13 -4 -23 -12 -23 -17 0 -5 -11
-9 -25 -9 -14 0 -38 -9 -53 -20 -23 -17 -33 -18 -62 -10 -49 14 -91 13 -87 -2
1 -10 -16 -13 -65 -12 -38 0 -68 -4 -68 -9 0 -6 -23 -6 -57 -2 -48 6 -55 5
-46 -7 13 -15 6 -32 -17 -40 -9 -3 3 -10 28 -17 23 -6 42 -16 42 -20 0 -5 -45
-12 -100 -16 -111 -7 -138 -22 -33 -17 48 2 74 -1 87 -11 19 -14 16 -15 -30
-21 -35 -5 -64 -2 -98 9 -41 14 -58 15 -117 5 -80 -14 -98 -26 -30 -22 26 2
67 -2 92 -9 l44 -13 -70 -12 c-38 -6 -58 -12 -44 -13 15 0 42 -8 60 -16 21
-10 27 -15 14 -14 -43 3 -37 -4 25 -27 36 -13 51 -22 35 -20 -41 6 -59 -6 -50
-33 6 -19 2 -21 -29 -21 -25 0 -36 -4 -36 -15 0 -8 6 -15 13 -15 21 0 -16 -20
-39 -20 -11 0 -50 9 -85 19 -35 11 -76 22 -90 25 -14 3 -35 14 -47 24 -29 25
-135 47 -159 33 -16 -9 -15 -10 7 -11 18 0 21 -3 12 -9 -8 -4 -13 -11 -12 -15
5 -20 -9 -26 -51 -20 -65 9 -75 17 -54 41 11 13 25 19 39 16 17 -4 18 -3 6 6
-13 9 -13 11 1 11 25 0 19 48 -6 57 -11 4 -99 7 -195 6 -134 -1 -189 -5 -233
-18 -41 -12 -57 -21 -53 -31 6 -16 -51 -30 -87 -21 -21 6 -21 6 -3 -9 18 -13
14 -14 -45 -8 l-64 5 40 -20 c22 -11 45 -20 51 -21 6 0 33 -10 60 -22 36 -16
44 -23 30 -26 -10 -2 -28 -13 -40 -24 -23 -21 -71 -19 -144 6 -21 7 -49 16
-64 20 l-28 6 0 -232 0 -233 213 1 c123 1 268 9 347 18 74 9 232 25 350 36
118 11 252 25 296 31 82 11 216 8 267 -6 39 -11 35 12 -5 24 -33 9 -33 9 12
10 48 2 118 15 128 25 3 4 -3 13 -14 22 -17 14 -15 14 34 9 35 -5 52 -3 52 4
0 6 -9 11 -19 11 -11 0 -23 5 -27 11 -5 8 1 10 20 5 14 -3 37 -9 51 -12 20 -5
24 -3 19 10 -8 21 15 29 55 19 43 -11 40 -27 -6 -34 -37 -6 -37 -6 12 -8 174
-8 196 -1 306 100 52 47 119 108 150 135 311 272 454 409 439 419 -21 13 -9
27 17 22 21 -4 36 2 63 24 19 17 68 58 108 91 40 34 71 63 68 65 -2 2 -51 6
-110 8 -91 5 -106 3 -106 -10 0 -13 -11 -15 -60 -12 -32 2 -57 0 -54 -5 3 -4
0 -8 -6 -8 -18 0 -37 -24 -32 -39 3 -9 -2 -11 -14 -8 -11 3 -29 8 -42 12 -13
4 -28 2 -35 -3 -37 -29 -147 -17 -170 19 -6 10 -20 19 -30 19 -10 0 -15 -5
-12 -10 10 -16 -21 -23 -52 -13 -17 6 -28 17 -28 28 0 13 -18 24 -70 41 -75
25 -95 28 -95 16z m-13 -108 c27 -7 21 -24 -8 -24 -11 0 -18 4 -15 9 4 5 0 12
-6 14 -18 8 3 8 29 1z m-572 -356 c13 -6 5 -7 -25 -3 -25 3 -49 10 -55 16 -11
11 47 2 80 -13z m-652 -147 c18 -18 1 -22 -51 -11 -70 16 -78 40 -9 29 27 -5
55 -13 60 -18z m442 -41 c29 -7 28 -8 -10 -8 -22 0 -51 4 -65 8 -23 7 -22 8
10 8 19 0 49 -4 65 -8z m568 3 c-7 -2 -19 -2 -25 0 -7 3 -2 5 12 5 14 0 19 -2
13 -5z m186 -159 c10 -9 -35 -3 -49 6 -11 8 -7 9 15 4 17 -4 32 -8 34 -10z
m-776 -101 c-7 -2 -19 -2 -25 0 -7 3 -2 5 12 5 14 0 19 -2 13 -5z m-424 -80
c21 -5 22 -7 7 -13 -23 -8 -86 0 -86 11 0 10 44 12 79 2z"/>
<path d="M2220 1680 c0 -10 68 -25 77 -16 6 6 -40 26 -63 26 -8 0 -14 -4 -14
-10z"/>
<path d="M8445 1300 c3 -5 8 -10 11 -10 2 0 4 5 4 10 0 6 -5 10 -11 10 -5 0
-7 -4 -4 -10z"/>
<path d="M1058 1253 c7 -3 16 -2 19 1 4 3 -2 6 -13 5 -11 0 -14 -3 -6 -6z"/>
<path d="M75 1151 c3 -5 -5 -13 -16 -16 -40 -13 2 -23 71 -17 l65 5 -55 18
c-63 21 -73 23 -65 10z"/>
<path d="M1820 758 c-30 -5 -89 -12 -130 -14 -58 -4 -79 -10 -94 -26 -13 -14
-25 -18 -43 -13 -16 4 -32 1 -42 -8 -9 -8 -23 -14 -31 -15 -21 0 -88 -9 -213
-29 -107 -16 -126 -33 -39 -33 24 0 41 -4 38 -9 -8 -13 19 -21 62 -20 l37 1
-38 8 c-20 4 -41 10 -45 15 -12 13 82 -3 155 -26 90 -29 189 -99 140 -99 -30
0 -49 -78 -21 -87 6 -2 68 54 139 124 124 125 127 128 99 133 l-29 6 25 7 c14
4 33 7 44 7 17 0 96 69 96 84 0 8 -41 6 -110 -6z"/>
<path d="M821 646 c12 -10 60 -16 54 -6 -3 5 -18 10 -32 10 -15 0 -24 -2 -22
-4z"/>
<path d="M1119 626 c-2 -3 -42 -11 -89 -19 -62 -11 -101 -12 -144 -6 -32 5
-61 7 -64 5 -2 -3 14 -8 38 -12 23 -4 44 -13 47 -20 7 -18 27 -18 43 1 8 9 31
15 59 16 25 0 68 4 95 7 41 6 47 9 34 19 -8 7 -17 11 -19 9z"/>
<path d="M8537 585 c-32 -29 -33 -30 -7 -32 11 -1 20 2 20 7 0 5 7 15 15 24
25 25 2 26 -28 1z"/>
<path d="M60 585 c0 -8 -4 -15 -10 -15 -21 0 -9 -20 15 -26 34 -9 75 3 75 22
0 8 4 13 8 10 5 -3 9 1 9 9 0 11 -13 15 -49 15 -36 0 -48 -4 -48 -15z"/>
<path d="M1110 520 c-47 -10 -102 -21 -122 -24 -37 -7 -38 -8 -38 -51 0 -30 4
-45 13 -45 7 0 51 11 98 25 46 13 103 25 126 25 l41 0 -2 42 c-2 29 -7 44 -17
45 -8 0 -52 -7 -99 -17z"/>
<path d="M8565 460 c-39 -28 -71 -56 -73 -63 -2 -7 0 -8 5 -2 4 6 26 23 48 38
49 34 102 77 95 77 -3 0 -37 -23 -75 -50z"/>
<path d="M8375 408 c-31 -32 -33 -36 -11 -19 27 19 63 61 54 61 -2 0 -22 -19
-43 -42z"/>
<path d="M8856 354 c-9 -20 -15 -39 -12 -41 3 -3 12 12 21 32 20 49 14 56 -9
9z"/>
<path d="M1523 358 c-27 -13 -33 -35 -33 -120 0 -50 6 -80 22 -113 18 -37 20
-48 9 -54 -21 -13 -4 -71 20 -71 13 0 18 4 13 13 -6 9 -4 9 7 -1 7 -6 35 -12
62 -12 l48 0 -44 57 c-64 84 -71 108 -64 219 7 100 5 104 -40 82z"/>
<path d="M8429 353 c-13 -16 -12 -17 4 -4 9 7 17 15 17 17 0 8 -8 3 -21 -13z"/>
<path d="M543 319 c-17 -7 -17 -8 2 -10 11 -1 28 -2 38 -1 9 1 17 -3 17 -8 0
-5 -15 -9 -32 -9 -18 1 -96 -22 -173 -50 -76 -28 -145 -51 -152 -51 -7 0 -21
-4 -31 -9 -25 -12 -120 -48 -169 -63 l-43 -13 0 -52 0 -53 228 1 c136 0 219 4
207 9 -11 5 -56 9 -100 9 -92 1 -126 14 -82 30 15 6 46 19 70 30 129 58 175
70 347 91 96 12 215 23 263 26 85 4 161 28 377 118 22 9 -139 -3 -333 -24
-167 -19 -327 -26 -327 -14 0 3 7 12 15 21 8 8 13 19 9 24 -6 10 -103 9 -131
-2z"/>
<path d="M63 303 c-55 -3 -63 -7 -63 -23 0 -13 7 -20 20 -20 11 0 20 5 20 10
0 6 30 10 69 10 78 0 131 9 131 21 0 9 -46 9 -177 2z"/>
<path d="M8756 213 c-14 -14 -24 -28 -21 -31 3 -3 6 -3 8 -1 1 2 13 16 26 32
31 35 22 35 -13 0z"/>
<path d="M8817 181 c-7 -29 9 -48 21 -25 10 20 6 44 -8 44 -4 0 -10 -9 -13
-19z"/>
<path d="M8905 155 c-14 -68 -15 -80 -6 -65 10 18 24 90 17 90 -3 0 -8 -11
-11 -25z"/>
<path d="M1055 160 c-4 -6 -11 -8 -16 -5 -10 7 -12 -25 -3 -49 3 -9 10 -16 16
-16 19 0 38 -29 38 -59 l0 -31 175 0 175 0 0 55 c0 30 -4 55 -10 55 -5 0 -10
8 -11 18 0 13 -3 11 -10 -6 -10 -26 -29 -21 -29 8 0 21 -13 33 -24 23 -4 -4
-23 -6 -42 -4 -34 3 -34 2 -34 -38 l0 -41 -80 0 -80 0 0 40 c0 29 -4 40 -15
40 -8 0 -15 5 -15 10 0 13 -27 13 -35 0z"/>
<path d="M8273 141 c-16 -26 -2 -41 19 -20 13 14 14 20 4 28 -8 7 -15 5 -23
-8z"/>
<path d="M960 131 c0 -15 6 -21 21 -21 14 0 19 5 17 17 -5 26 -38 29 -38 4z"/>
<path d="M8780 146 c0 -3 9 -10 20 -16 11 -6 20 -8 20 -6 0 3 -9 10 -20 16
-11 6 -20 8 -20 6z"/>
<path d="M825 90 c2 -3 -14 -14 -35 -24 -38 -18 -77 -16 -65 4 3 6 -1 7 -9 4
-18 -7 -21 -20 -6 -29 18 -11 10 -26 -12 -23 -11 2 -23 -3 -25 -9 -4 -10 27
-13 131 -13 l136 0 0 35 c0 19 -4 35 -10 35 -5 0 -10 6 -10 13 0 10 -15 13
-49 13 -27 -1 -48 -3 -46 -6z"/>
<path d="M3260 71 c0 -4 21 -14 48 -22 26 -7 53 -21 60 -31 11 -16 28 -18 125
-17 l112 0 -65 24 c-119 45 -280 71 -280 46z"/>
<path d="M552 43 c-22 -4 -22 -6 -6 -17 14 -11 27 -11 67 0 27 7 51 14 53 16
5 5 -87 6 -114 1z"/>
<path d="M8863 38 c-18 -24 -24 -38 -16 -38 10 0 36 40 30 46 -2 3 -9 -1 -14
-8z"/>
</g>
</svg>
